999
dxfrw 0.6.3
  0
SECTION
  2
HEADER
  9
$ACADVER
  1
AC1021
  9
$DWGCODEPAGE
  3
ANSI_1252
  9
$INSBASE
 10
0
 20
0
 30
0
  9
$EXTMIN
 10
-3.996802888650564e-15
 20
-60
 30
0
  9
$EXTMAX
 10
220
 20
97
 30
0
  9
$LIMMIN
 10
0
 20
0
  9
$LIMMAX
 10
420
 20
297
  9
$ORTHOMODE
 70
    0
  9
$REGENMODE
 70
    1
  9
$FILLMODE
 70
    1
  9
$QTEXTMODE
 70
    0
  9
$MIRRTEXT
 70
    0
  9
$LTSCALE
 40
1
  9
$ATTMODE
 70
    0
  9
$TEXTSIZE
 40
2.5
  9
$TRACEWID
 40
15.68
  9
$TEXTSTYLE
  7
STANDARD
  9
$CLAYER
  8
Plate contour
  9
$CELTYPE
  6
BYLAYER
  9
$CECOLOR
 62
  256
  9
$CELTSCALE
 40
1
  9
$DISPSILH
 70
    0
  9
$DIMSCALE
 40
2.5
  9
$DIMASZ
 40
2.5
  9
$DIMEXO
 40
0.625
  9
$DIMDLI
 40
3.75
  9
$DIMRND
 40
0
  9
$DIMDLE
 40
0
  9
$DIMEXE
 40
1.25
  9
$DIMTP
 40
0
  9
$DIMTM
 40
0
  9
$DIMTXT
 40
2.5
  9
$DIMCEN
 40
2.5
  9
$DIMTSZ
 40
0
  9
$DIMTOL
 70
    0
  9
$DIMLIM
 70
    0
  9
$DIMTIH
 70
    0
  9
$DIMTOH
 70
    0
  9
$DIMSE1
 70
    0
  9
$DIMSE2
 70
    0
  9
$DIMTAD
 70
    1
  9
$DIMZIN
 70
    8
  9
$DIMBLK
  1

  9
$DIMASO
 70
    1
  9
$DIMSHO
 70
    1
  9
$DIMPOST
  1

  9
$DIMAPOST
  1

  9
$DIMALT
 70
    0
  9
$DIMALTD
 70
    3
  9
$DIMALTF
 40
0.03937
  9
$DIMLFAC
 40
1
  9
$DIMTOFL
 70
    1
  9
$DIMTVP
 40
0
  9
$DIMTIX
 70
    0
  9
$DIMSOXD
 70
    0
  9
$DIMSAH
 70
    0
  9
$DIMBLK1
  1

  9
$DIMBLK2
  1

  9
$DIMSTYLE
  2
Standard
  9
$DIMCLRD
 70
    0
  9
$DIMCLRE
 70
    0
  9
$DIMCLRT
 70
    0
  9
$DIMTFAC
 40
1
  9
$DIMGAP
 40
0.625
  9
$DIMJUST
 70
    0
  9
$DIMSD1
 70
    0
  9
$DIMSD2
 70
    0
  9
$DIMTOLJ
 70
    0
  9
$DIMTZIN
 70
    8
  9
$DIMALTZ
 70
    0
  9
$DIMALTTZ
 70
    0
  9
$DIMUPT
 70
    0
  9
$DIMDEC
 70
    2
  9
$DIMTDEC
 70
    2
  9
$DIMALTU
 70
    2
  9
$DIMALTTD
 70
    3
  9
$DIMTXSTY
  7
STANDARD
  9
$DIMAUNIT
 70
    0
  9
$DIMADEC
 70
    0
  9
$DIMALTRND
 40
0
  9
$DIMAZIN
 70
    0
  9
$DIMDSEP
 70
   44
  9
$DIMATFIT
 70
    3
  9
$DIMFRAC
 70
    0
  9
$DIMLDRBLK
  1
STANDARD
  9
$DIMLUNIT
 70
    2
  9
$DIMLWD
 70
   -2
  9
$DIMLWE
 70
   -2
  9
$DIMTMOVE
 70
    0
  9
$DIMFXL
 40
1
  9
$DIMFXLON
 70
    0
  9
$DIMJOGANG
 40
0.7854
  9
$DIMTFILL
 70
    0
  9
$DIMTFILLCLR
 70
    0
  9
$DIMARCSYM
 70
    0
  9
$DIMLTYPE
  6

  9
$DIMLTEX1
  6

  9
$DIMLTEX2
  6

  9
$LUNITS
 70
    2
  9
$LUPREC
 70
    4
  9
$SKETCHINC
 40
1
  9
$FILLETRAD
 40
0
  9
$AUNITS
 70
    0
  9
$AUPREC
 70
    2
  9
$MENU
  1
.
  9
$ELEVATION
 40
0
  9
$PELEVATION
 40
0
  9
$THICKNESS
 40
0
  9
$LIMCHECK
 70
    0
  9
$CHAMFERA
 40
0
  9
$CHAMFERB
 40
0
  9
$CHAMFERC
 40
0
  9
$CHAMFERD
 40
0
  9
$SKPOLY
 70
    0
  9
$USRTIMER
 70
    1
  9
$ANGBASE
 50
0
  9
$ANGDIR
 70
    0
  9
$PDMODE
 70
   34
  9
$PDSIZE
 40
0
  9
$PLINEWID
 40
0
  9
$SPLFRAME
 70
    0
  9
$SPLINETYPE
 70
    2
  9
$SPLINESEGS
 70
    8
  9
$HANDSEED
  5
20000
  9
$SURFTAB1
 70
    6
  9
$SURFTAB2
 70
    6
  9
$SURFTYPE
 70
    6
  9
$SURFU
 70
    6
  9
$SURFV
 70
    6
  9
$UCSBASE
  2

  9
$UCSNAME
  2

  9
$UCSORG
 10
0
 20
0
 30
0
  9
$UCSXDIR
 10
1
 20
0
 30
0
  9
$UCSYDIR
 10
0
 20
1
 30
0
  9
$UCSORTHOREF
  2

  9
$UCSORTHOVIEW
 70
    0
  9
$UCSORGTOP
 10
0
 20
0
 30
0
  9
$UCSORGBOTTOM
 10
0
 20
0
 30
0
  9
$UCSORGLEFT
 10
0
 20
0
 30
0
  9
$UCSORGRIGHT
 10
0
 20
0
 30
0
  9
$UCSORGFRONT
 10
0
 20
0
 30
0
  9
$UCSORGBACK
 10
0
 20
0
 30
0
  9
$PUCSBASE
  2

  9
$PUCSNAME
  2

  9
$PUCSORG
 10
0
 20
0
 30
0
  9
$PUCSXDIR
 10
1
 20
0
 30
0
  9
$PUCSYDIR
 10
0
 20
1
 30
0
  9
$PUCSORTHOREF
  2

  9
$PUCSORTHOVIEW
 70
    0
  9
$PUCSORGTOP
 10
0
 20
0
 30
0
  9
$PUCSORGBOTTOM
 10
0
 20
0
 30
0
  9
$PUCSORGLEFT
 10
0
 20
0
 30
0
  9
$PUCSORGRIGHT
 10
0
 20
0
 30
0
  9
$PUCSORGFRONT
 10
0
 20
0
 30
0
  9
$PUCSORGBACK
 10
0
 20
0
 30
0
  9
$USERI1
 70
    0
  9
$USERI2
 70
    0
  9
$USERI3
 70
    0
  9
$USERI4
 70
    0
  9
$USERI5
 70
    0
  9
$USERR1
 40
0
  9
$USERR2
 40
0
  9
$USERR3
 40
0
  9
$USERR4
 40
0
  9
$USERR5
 40
0
  9
$WORLDVIEW
 70
    1
  9
$SHADEDGE
 70
    3
  9
$SHADEDIF
 70
   70
  9
$TILEMODE
 70
    1
  9
$MAXACTVP
 70
   64
  9
$PINSBASE
 10
0
 20
0
 30
0
  9
$PLIMCHECK
 70
    0
  9
$PEXTMIN
 10
0
 20
0
 30
0
  9
$PEXTMAX
 10
0
 20
0
 30
0
  9
$GRIDMODE
 70
    1
  9
$SNAPSTYLE
 70
    0
  9
$PLIMMIN
 10
0
 20
0
  9
$PLIMMAX
 10
210
 20
297
  9
$UNITMODE
 70
    0
  9
$VISRETAIN
 70
    1
  9
$PLINEGEN
 70
    0
  9
$PSLTSCALE
 70
    1
  9
$TREEDEPTH
 70
 3020
  9
$CMLSTYLE
  2
Standard
  9
$CMLJUST
 70
    0
  9
$CMLSCALE
 40
20
  9
$PROXYGRAPHICS
 70
    1
  9
$MEASUREMENT
 70
    1
  9
$CELWEIGHT
370
   -1
  9
$ENDCAPS
280
    0
  9
$JOINSTYLE
280
    0
  9
$LWDISPLAY
290
    0
  9
$INSUNITS
 70
    4
  9
$HYPERLINKBASE
  1

  9
$STYLESHEET
  1

  9
$XEDIT
290
    1
  9
$CEPSNTYPE
380
    0
  9
$PSTYLEMODE
290
    1
  9
$EXTNAMES
290
    1
  9
$PSVPSCALE
 40
1
  9
$OLESTARTUP
290
    0
  9
$SORTENTS
280
  127
  9
$INDEXCTL
280
    0
  9
$HIDETEXT
280
    1
  9
$XCLIPFRAME
290
    0
  9
$HALOGAP
280
    0
  9
$OBSCOLOR
 70
  257
  9
$OBSLTYPE
280
    0
  9
$INTERSECTIONDISPLAY
280
    0
  9
$INTERSECTIONCOLOR
 70
  257
  9
$DIMASSOC
280
    1
  9
$PROJECTNAME
  1

  9
$CAMERADISPLAY
290
    0
  9
$LENSLENGTH
 40
50
  9
$CAMERAHEIGHT
 40
0
  9
$STEPSPERSEC
 40
2
  9
$STEPSIZE
 40
50
  9
$3DDWFPREC
 40
2
  9
$PSOLWIDTH
 40
5
  9
$PSOLHEIGHT
 40
80
  9
$LOFTANG1
 40
1.570796326794897
  9
$LOFTANG2
 40
1.570796326794897
  9
$LOFTMAG1
 40
0
  9
$LOFTMAG2
 40
0
  9
$LOFTPARAM
 70
    7
  9
$LOFTNORMALS
280
    1
  9
$LATITUDE
 40
1
  9
$LONGITUDE
 40
1
  9
$NORTHDIRECTION
 40
0
  9
$TIMEZONE
 70
-8000
  9
$LIGHTGLYPHDISPLAY
280
    1
  9
$TILEMODELIGHTSYNCH
280
    1
  9
$SOLIDHIST
280
    1
  9
$SHOWHIST
280
    1
  9
$DWFFRAME
280
    2
  9
$DGNFRAME
280
    0
  9
$REALWORLDSCALE
290
    1
  9
$INTERFERECOLOR
 62
    1
  9
$CSHADOW
280
    0
  9
$SHADOWPLANELOCATION
 40
0
  0
ENDSEC
  0
SECTION
  2
CLASSES
  0
ENDSEC
  0
SECTION
  2
TABLES
  0
TABLE
  2
VPORT
  5
8
330
0
100
AcDbSymbolTable
 70
    1
  0
VPORT
  5
31
330
2
100
AcDbSymbolTableRecord
100
AcDbViewportTableRecord
  2
*ACTIVE
 70
    0
 10
0
 20
0
 11
1
 21
1
 12
147.8305183149037
 22
89.86144450867879
 13
0
 23
0
 14
10
 24
10
 15
10
 25
10
 16
0
 26
0
 36
1
 17
0
 27
0
 37
0
 40
290.0329712117274
 41
1.673997412677878
 42
50
 43
0
 44
0
 50
0
 51
0
 71
    0
 72
  100
 73
    1
 74
    3
 75
    0
 76
    1
 77
    0
 78
    0
281
    0
 65
    1
110
0
120
0
130
0
111
1
121
0
131
0
112
0
122
1
132
0
 79
    0
146
0
348
10020
 60
    7
 61
    5
292
1
282
    1
141
0
142
0
 63
  250
421
3358443
  0
ENDTAB
  0
TABLE
  2
LTYPE
  5
5
330
0
100
AcDbSymbolTable
 70
    4
  0
LTYPE
  5
14
330
5
100
AcDbSymbolTableRecord
100
AcDbLinetypeTableRecord
  2
ByBlock
 70
    0
  3

 72
   65
 73
    0
 40
0
  0
LTYPE
  5
15
330
5
100
AcDbSymbolTableRecord
100
AcDbLinetypeTableRecord
  2
ByLayer
 70
    0
  3

 72
   65
 73
    0
 40
0
  0
LTYPE
  5
16
330
5
100
AcDbSymbolTableRecord
100
AcDbLinetypeTableRecord
  2
Continuous
 70
    0
  3
Solid line
 72
   65
 73
    0
 40
0
  0
LTYPE
  5
32
330
5
100
AcDbSymbolTableRecord
100
AcDbLinetypeTableRecord
  2
DOT
 70
    0
  3
Dot . . . . . . . . . . . . . . . . . . . . . .
 72
   65
 73
    2
 40
6.35
 49
0
 74
    0
 49
-6.35
 74
    0
  0
LTYPE
  5
33
330
5
100
AcDbSymbolTableRecord
100
AcDbLinetypeTableRecord
  2
DOTTINY
 70
    0
  3
Dot (.15x) .....................................
 72
   65
 73
    2
 40
0.9525
 49
0
 74
    0
 49
-0.9525
 74
    0
  0
LTYPE
  5
34
330
5
100
AcDbSymbolTableRecord
100
AcDbLinetypeTableRecord
  2
DOT2
 70
    0
  3
Dot (.5x) .....................................
 72
   65
 73
    2
 40
3.175
 49
0
 74
    0
 49
-3.175
 74
    0
  0
LTYPE
  5
35
330
5
100
AcDbSymbolTableRecord
100
AcDbLinetypeTableRecord
  2
DOTX2
 70
    0
  3
Dot (2x) .  .  .  .  .  .  .  .  .  .  .  .  .
 72
   65
 73
    2
 40
12.7
 49
0
 74
    0
 49
-12.7
 74
    0
  0
LTYPE
  5
36
330
5
100
AcDbSymbolTableRecord
100
AcDbLinetypeTableRecord
  2
DASHED
 70
    0
  3
Dashed _ _ _ _ _ _ _ _ _ _ _ _ _ _ _ _ _
 72
   65
 73
    2
 40
19.05
 49
12.7
 74
    0
 49
-6.35
 74
    0
  0
LTYPE
  5
37
330
5
100
AcDbSymbolTableRecord
100
AcDbLinetypeTableRecord
  2
DASHEDTINY
 70
    0
  3
Dashed (.15x) _ _ _ _ _ _ _ _ _ _ _ _ _ _ _ _ _
 72
   65
 73
    2
 40
2.8575
 49
1.905
 74
    0
 49
-0.9525
 74
    0
  0
LTYPE
  5
38
330
5
100
AcDbSymbolTableRecord
100
AcDbLinetypeTableRecord
  2
DASHED2
 70
    0
  3
Dashed (.5x) _ _ _ _ _ _ _ _ _ _ _ _ _ _ _ _ _
 72
   65
 73
    2
 40
9.524999999999999
 49
6.35
 74
    0
 49
-3.175
 74
    0
  0
LTYPE
  5
39
330
5
100
AcDbSymbolTableRecord
100
AcDbLinetypeTableRecord
  2
DASHEDX2
 70
    0
  3
Dashed (2x) ____  ____  ____  ____  ____  ___
 72
   65
 73
    2
 40
38.09999999999999
 49
25.4
 74
    0
 49
-12.7
 74
    0
  0
LTYPE
  5
3A
330
5
100
AcDbSymbolTableRecord
100
AcDbLinetypeTableRecord
  2
DASHDOT
 70
    0
  3
Dash dot __ . __ . __ . __ . __ . __ . __ . __
 72
   65
 73
    4
 40
25.4
 49
12.7
 74
    0
 49
-6.35
 74
    0
 49
0
 74
    0
 49
-6.35
 74
    0
  0
LTYPE
  5
3B
330
5
100
AcDbSymbolTableRecord
100
AcDbLinetypeTableRecord
  2
DASHDOTTINY
 70
    0
  3
Dash dot (.15x) _._._._._._._._._._._._._._._.
 72
   65
 73
    4
 40
3.81
 49
1.905
 74
    0
 49
-0.9525
 74
    0
 49
0
 74
    0
 49
-0.9525
 74
    0
  0
LTYPE
  5
3C
330
5
100
AcDbSymbolTableRecord
100
AcDbLinetypeTableRecord
  2
DASHDOT2
 70
    0
  3
Dash dot (.5x) _._._._._._._._._._._._._._._.
 72
   65
 73
    4
 40
12.7
 49
6.35
 74
    0
 49
-3.175
 74
    0
 49
0
 74
    0
 49
-3.175
 74
    0
  0
LTYPE
  5
3D
330
5
100
AcDbSymbolTableRecord
100
AcDbLinetypeTableRecord
  2
DASHDOTX2
 70
    0
  3
Dash dot (2x) ____  .  ____  .  ____  .  ___
 72
   65
 73
    4
 40
50.8
 49
25.4
 74
    0
 49
-12.7
 74
    0
 49
0
 74
    0
 49
-12.7
 74
    0
  0
LTYPE
  5
3E
330
5
100
AcDbSymbolTableRecord
100
AcDbLinetypeTableRecord
  2
DIVIDE
 70
    0
  3
Divide ____ . . ____ . . ____ . . ____ . . ____
 72
   65
 73
    6
 40
31.75
 49
12.7
 74
    0
 49
-6.35
 74
    0
 49
0
 74
    0
 49
-6.35
 74
    0
 49
0
 74
    0
 49
-6.35
 74
    0
  0
LTYPE
  5
3F
330
5
100
AcDbSymbolTableRecord
100
AcDbLinetypeTableRecord
  2
DIVIDETINY
 70
    0
  3
Divide (.15x) __..__..__..__..__..__..__..__.._
 72
   65
 73
    6
 40
4.7625
 49
1.905
 74
    0
 49
-0.9525
 74
    0
 49
0
 74
    0
 49
-0.9525
 74
    0
 49
0
 74
    0
 49
-0.9525
 74
    0
  0
LTYPE
  5
40
330
5
100
AcDbSymbolTableRecord
100
AcDbLinetypeTableRecord
  2
DIVIDE2
 70
    0
  3
Divide (.5x) __..__..__..__..__..__..__..__.._
 72
   65
 73
    6
 40
15.875
 49
6.35
 74
    0
 49
-3.175
 74
    0
 49
0
 74
    0
 49
-3.175
 74
    0
 49
0
 74
    0
 49
-3.175
 74
    0
  0
LTYPE
  5
41
330
5
100
AcDbSymbolTableRecord
100
AcDbLinetypeTableRecord
  2
DIVIDEX2
 70
    0
  3
Divide (2x) ________  .  .  ________  .  .  _
 72
   65
 73
    6
 40
63.5
 49
25.4
 74
    0
 49
-12.7
 74
    0
 49
0
 74
    0
 49
-12.7
 74
    0
 49
0
 74
    0
 49
-12.7
 74
    0
  0
LTYPE
  5
42
330
5
100
AcDbSymbolTableRecord
100
AcDbLinetypeTableRecord
  2
BORDER
 70
    0
  3
Border __ __ . __ __ . __ __ . __ __ . __ __ .
 72
   65
 73
    6
 40
44.45
 49
12.7
 74
    0
 49
-6.35
 74
    0
 49
12.7
 74
    0
 49
-6.35
 74
    0
 49
0
 74
    0
 49
-6.35
 74
    0
  0
LTYPE
  5
43
330
5
100
AcDbSymbolTableRecord
100
AcDbLinetypeTableRecord
  2
BORDERTINY
 70
    0
  3
Border (.15x) __.__.__.__.__.__.__.__.__.__.__.
 72
   65
 73
    6
 40
6.6675
 49
1.905
 74
    0
 49
-0.9525
 74
    0
 49
1.905
 74
    0
 49
-0.9525
 74
    0
 49
0
 74
    0
 49
-0.9525
 74
    0
  0
LTYPE
  5
44
330
5
100
AcDbSymbolTableRecord
100
AcDbLinetypeTableRecord
  2
BORDER2
 70
    0
  3
Border (.5x) __.__.__.__.__.__.__.__.__.__.__.
 72
   65
 73
    6
 40
22.225
 49
6.35
 74
    0
 49
-3.175
 74
    0
 49
6.35
 74
    0
 49
-3.175
 74
    0
 49
0
 74
    0
 49
-3.175
 74
    0
  0
LTYPE
  5
45
330
5
100
AcDbSymbolTableRecord
100
AcDbLinetypeTableRecord
  2
BORDERX2
 70
    0
  3
Border (2x) ____  ____  .  ____  ____  .  ___
 72
   65
 73
    6
 40
88.89999999999999
 49
25.4
 74
    0
 49
-12.7
 74
    0
 49
25.4
 74
    0
 49
-12.7
 74
    0
 49
0
 74
    0
 49
-12.7
 74
    0
  0
LTYPE
  5
46
330
5
100
AcDbSymbolTableRecord
100
AcDbLinetypeTableRecord
  2
CENTER
 70
    0
  3
Center ____ _ ____ _ ____ _ ____ _ ____ _ ____
 72
   65
 73
    4
 40
50.8
 49
31.75
 74
    0
 49
-6.35
 74
    0
 49
6.35
 74
    0
 49
-6.35
 74
    0
  0
LTYPE
  5
47
330
5
100
AcDbSymbolTableRecord
100
AcDbLinetypeTableRecord
  2
CENTERTINY
 70
    0
  3
Center (.15x) ___ _ ___ _ ___ _ ___ _ ___ _ ___
 72
   65
 73
    4
 40
7.619999999999999
 49
4.7625
 74
    0
 49
-0.9525
 74
    0
 49
0.9525
 74
    0
 49
-0.9525
 74
    0
  0
LTYPE
  5
48
330
5
100
AcDbSymbolTableRecord
100
AcDbLinetypeTableRecord
  2
CENTER2
 70
    0
  3
Center (.5x) ___ _ ___ _ ___ _ ___ _ ___ _ ___
 72
   65
 73
    4
 40
28.575
 49
19.05
 74
    0
 49
-3.175
 74
    0
 49
3.175
 74
    0
 49
-3.175
 74
    0
  0
LTYPE
  5
49
330
5
100
AcDbSymbolTableRecord
100
AcDbLinetypeTableRecord
  2
CENTERX2
 70
    0
  3
Center (2x) ________  __  ________  __  _____
 72
   65
 73
    4
 40
101.6
 49
63.5
 74
    0
 49
-12.7
 74
    0
 49
12.7
 74
    0
 49
-12.7
 74
    0
  0
ENDTAB
  0
TABLE
  2
LAYER
  5
2
330
0
100
AcDbSymbolTable
 70
    1
  0
LAYER
  5
10
330
2
100
AcDbSymbolTableRecord
100
AcDbLayerTableRecord
  2
0
 70
    1
 62
    6
  6
CONTINUOUS
370
    0
390
F
  0
LAYER
  5
4A
330
2
100
AcDbSymbolTableRecord
100
AcDbLayerTableRecord
  2
Keycaps footprints
 70
    0
 62
    7
  6
CONTINUOUS
370
    0
390
F
  0
LAYER
  5
4B
330
2
100
AcDbSymbolTableRecord
100
AcDbLayerTableRecord
  2
Switches footprints
 70
    0
 62
    7
  6
CONTINUOUS
370
    0
390
F
  0
LAYER
  5
4C
330
2
100
AcDbSymbolTableRecord
100
AcDbLayerTableRecord
  2
RPi pico
 70
    0
 62
    7
  6
CONTINUOUS
370
    0
390
F
  0
LAYER
  5
4D
330
2
100
AcDbSymbolTableRecord
100
AcDbLayerTableRecord
  2
Plate holes
 70
    0
 62
    7
  6
CONTINUOUS
370
    0
390
F
  0
LAYER
  5
4E
330
2
100
AcDbSymbolTableRecord
100
AcDbLayerTableRecord
  2
Plate contour
 70
    0
 62
    7
  6
CONTINUOUS
370
    0
390
F
  0
ENDTAB
  0
TABLE
  2
STYLE
  5
3
330
0
100
AcDbSymbolTable
 70
    3
  0
STYLE
  5
4F
330
2
100
AcDbSymbolTableRecord
100
AcDbTextStyleTableRecord
  2
Standard
 70
    0
 40
0
 41
1
 50
0
 71
    0
 42
1
  3
txt
  4

  0
ENDTAB
  0
TABLE
  2
VIEW
  5
6
330
0
100
AcDbSymbolTable
 70
    0
  0
ENDTAB
  0
TABLE
  2
UCS
  5
7
330
0
100
AcDbSymbolTable
 70
    0
  0
ENDTAB
  0
TABLE
  2
APPID
  5
9
330
0
100
AcDbSymbolTable
 70
    1
  0
APPID
  5
12
330
9
100
AcDbSymbolTableRecord
100
AcDbRegAppTableRecord
  2
ACAD
 70
    0
  0
APPID
  5
50
330
9
100
AcDbSymbolTableRecord
100
AcDbRegAppTableRecord
  2
LibreCad
 70
    0
  0
ENDTAB
  0
TABLE
  2
DIMSTYLE
  5
A
330
0
100
AcDbSymbolTable
 70
    1
100
AcDbDimStyleTable
 71
    1
  0
DIMSTYLE
105
51
330
A
100
AcDbSymbolTableRecord
100
AcDbDimStyleTableRecord
  2
Standard
 70
    0
 40
2.5
 41
2.5
 42
0.625
 43
0.38
 44
1.25
 45
0
 46
0
 47
0
 48
0
 49
1
140
2.5
141
0.09
142
0
143
25.4
144
1
145
0
146
1
147
0.625
148
0
 71
    0
 72
    0
 73
    0
 74
    1
 75
    0
 76
    0
 77
    0
 78
    8
 79
    0
170
    0
171
    2
172
    0
173
    0
174
    0
175
    0
176
    0
177
    0
178
    0
179
    0
271
    2
272
    4
273
    2
274
    2
275
    0
276
    0
277
    2
278
   44
279
    0
280
    0
281
    0
282
    0
283
    1
284
    0
285
    0
286
    0
288
    0
289
    3
340
STANDARD
341

371
   -2
372
   -2
  0
ENDTAB
  0
TABLE
  2
BLOCK_RECORD
  5
1
330
0
100
AcDbSymbolTable
 70
    2
  0
BLOCK_RECORD
  5
1F
330
1
100
AcDbSymbolTableRecord
100
AcDbBlockTableRecord
  2
*Model_Space
 70
    0
280
    1
281
    0
  0
BLOCK_RECORD
  5
1E
330
1
100
AcDbSymbolTableRecord
100
AcDbBlockTableRecord
  2
*Paper_Space
 70
    0
280
    1
281
    0
  0
ENDTAB
  0
ENDSEC
  0
SECTION
  2
BLOCKS
  0
BLOCK
  5
20
330
1F
100
AcDbEntity
  8
0
100
AcDbBlockBegin
  2
*Model_Space
 70
    0
 10
0
 20
0
 30
0
  3
*Model_Space
  1

  0
ENDBLK
  5
21
330
1F
100
AcDbEntity
  8
0
100
AcDbBlockEnd
  0
BLOCK
  5
1C
330
1B
100
AcDbEntity
  8
0
100
AcDbBlockBegin
  2
*Paper_Space
 70
    0
 10
0
 20
0
 30
0
  3
*Paper_Space
  1

  0
ENDBLK
  5
1D
330
1F
100
AcDbEntity
  8
0
100
AcDbBlockEnd
  0
ENDSEC
  0
SECTION
  2
ENTITIES
  0
LINE
  5
52
100
AcDbEntity
  8
Plate holes
  6
ByLayer
 62
  256
370
   -1
100
AcDbLine
 10
1.35
 20
45.15
 11
15.15
 21
45.15
  0
LINE
  5
53
100
AcDbEntity
  8
Plate holes
  6
ByLayer
 62
  256
370
   -1
100
AcDbLine
 10
1.35
 20
45.15
 11
1.349999999999999
 21
31.35
  0
LINE
  5
54
100
AcDbEntity
  8
Plate holes
  6
ByLayer
 62
  256
370
   -1
100
AcDbLine
 10
1.349999999999999
 20
31.35
 11
15.15
 21
31.35
  0
LINE
  5
55
100
AcDbEntity
  8
Plate holes
  6
ByLayer
 62
  256
370
   -1
100
AcDbLine
 10
15.15
 20
31.35
 11
15.15
 21
45.15000000000001
  0
LINE
  5
56
100
AcDbEntity
  8
Plate holes
  6
ByLayer
 62
  256
370
   -1
100
AcDbLine
 10
1.35
 20
62.15000000000001
 11
15.15
 21
62.15000000000001
  0
LINE
  5
57
100
AcDbEntity
  8
Plate holes
  6
ByLayer
 62
  256
370
   -1
100
AcDbLine
 10
1.35
 20
62.15000000000001
 11
1.349999999999999
 21
48.35
  0
LINE
  5
58
100
AcDbEntity
  8
Plate holes
  6
ByLayer
 62
  256
370
   -1
100
AcDbLine
 10
1.349999999999999
 20
48.35
 11
15.15
 21
48.35
  0
LINE
  5
59
100
AcDbEntity
  8
Plate holes
  6
ByLayer
 62
  256
370
   -1
100
AcDbLine
 10
15.15
 20
48.35
 11
15.15
 21
62.15000000000001
  0
LINE
  5
5A
100
AcDbEntity
  8
Plate holes
  6
ByLayer
 62
  256
370
   -1
100
AcDbLine
 10
1.35
 20
79.15000000000001
 11
15.15
 21
79.15000000000001
  0
LINE
  5
5B
100
AcDbEntity
  8
Plate holes
  6
ByLayer
 62
  256
370
   -1
100
AcDbLine
 10
1.35
 20
79.15000000000001
 11
1.349999999999999
 21
65.35000000000001
  0
LINE
  5
5C
100
AcDbEntity
  8
Plate holes
  6
ByLayer
 62
  256
370
   -1
100
AcDbLine
 10
1.349999999999999
 20
65.35000000000001
 11
15.15
 21
65.35000000000001
  0
LINE
  5
5D
100
AcDbEntity
  8
Plate holes
  6
ByLayer
 62
  256
370
   -1
100
AcDbLine
 10
15.15
 20
65.35000000000001
 11
15.15
 21
79.15000000000001
  0
LINE
  5
5E
100
AcDbEntity
  8
Plate holes
  6
ByLayer
 62
  256
370
   -1
100
AcDbLine
 10
18.35
 20
58.65
 11
32.15
 21
58.65
  0
LINE
  5
5F
100
AcDbEntity
  8
Plate holes
  6
ByLayer
 62
  256
370
   -1
100
AcDbLine
 10
18.35
 20
58.65
 11
18.35
 21
44.85
  0
LINE
  5
60
100
AcDbEntity
  8
Plate holes
  6
ByLayer
 62
  256
370
   -1
100
AcDbLine
 10
18.35
 20
44.85
 11
32.15
 21
44.85
  0
LINE
  5
61
100
AcDbEntity
  8
Plate holes
  6
ByLayer
 62
  256
370
   -1
100
AcDbLine
 10
32.15
 20
44.85
 11
32.15
 21
58.65000000000001
  0
LINE
  5
62
100
AcDbEntity
  8
Plate holes
  6
ByLayer
 62
  256
370
   -1
100
AcDbLine
 10
18.35
 20
75.65000000000001
 11
32.15
 21
75.65000000000001
  0
LINE
  5
63
100
AcDbEntity
  8
Plate holes
  6
ByLayer
 62
  256
370
   -1
100
AcDbLine
 10
18.35
 20
75.65000000000001
 11
18.35
 21
61.85
  0
LINE
  5
64
100
AcDbEntity
  8
Plate holes
  6
ByLayer
 62
  256
370
   -1
100
AcDbLine
 10
18.35
 20
61.85
 11
32.15
 21
61.85
  0
LINE
  5
65
100
AcDbEntity
  8
Plate holes
  6
ByLayer
 62
  256
370
   -1
100
AcDbLine
 10
32.15
 20
61.85
 11
32.15
 21
75.65000000000001
  0
LINE
  5
66
100
AcDbEntity
  8
Plate holes
  6
ByLayer
 62
  256
370
   -1
100
AcDbLine
 10
18.35
 20
92.65000000000001
 11
32.15
 21
92.65000000000001
  0
LINE
  5
67
100
AcDbEntity
  8
Plate holes
  6
ByLayer
 62
  256
370
   -1
100
AcDbLine
 10
18.35
 20
92.65000000000001
 11
18.35
 21
78.85000000000001
  0
LINE
  5
68
100
AcDbEntity
  8
Plate holes
  6
ByLayer
 62
  256
370
   -1
100
AcDbLine
 10
18.35
 20
78.85000000000001
 11
32.15
 21
78.85000000000001
  0
LINE
  5
69
100
AcDbEntity
  8
Plate holes
  6
ByLayer
 62
  256
370
   -1
100
AcDbLine
 10
32.15
 20
78.85000000000001
 11
32.15
 21
92.65000000000001
  0
LINE
  5
6A
100
AcDbEntity
  8
Plate holes
  6
ByLayer
 62
  256
370
   -1
100
AcDbLine
 10
35.35
 20
61.65
 11
49.15
 21
61.65
  0
LINE
  5
6B
100
AcDbEntity
  8
Plate holes
  6
ByLayer
 62
  256
370
   -1
100
AcDbLine
 10
35.35
 20
61.65
 11
35.35
 21
47.85
  0
LINE
  5
6C
100
AcDbEntity
  8
Plate holes
  6
ByLayer
 62
  256
370
   -1
100
AcDbLine
 10
35.35
 20
47.85
 11
49.15
 21
47.85
  0
LINE
  5
6D
100
AcDbEntity
  8
Plate holes
  6
ByLayer
 62
  256
370
   -1
100
AcDbLine
 10
49.15
 20
47.85
 11
49.15
 21
61.65000000000001
  0
LINE
  5
6E
100
AcDbEntity
  8
Plate holes
  6
ByLayer
 62
  256
370
   -1
100
AcDbLine
 10
35.35
 20
78.65000000000001
 11
49.15
 21
78.65000000000001
  0
LINE
  5
6F
100
AcDbEntity
  8
Plate holes
  6
ByLayer
 62
  256
370
   -1
100
AcDbLine
 10
35.35
 20
78.65000000000001
 11
35.35
 21
64.85000000000001
  0
LINE
  5
70
100
AcDbEntity
  8
Plate holes
  6
ByLayer
 62
  256
370
   -1
100
AcDbLine
 10
35.35
 20
64.85000000000001
 11
49.15
 21
64.85000000000001
  0
LINE
  5
71
100
AcDbEntity
  8
Plate holes
  6
ByLayer
 62
  256
370
   -1
100
AcDbLine
 10
49.15
 20
64.85000000000001
 11
49.15
 21
78.65000000000001
  0
LINE
  5
72
100
AcDbEntity
  8
Plate holes
  6
ByLayer
 62
  256
370
   -1
100
AcDbLine
 10
35.35
 20
95.65000000000001
 11
49.15
 21
95.65000000000001
  0
LINE
  5
73
100
AcDbEntity
  8
Plate holes
  6
ByLayer
 62
  256
370
   -1
100
AcDbLine
 10
35.35
 20
95.65000000000001
 11
35.35
 21
81.85000000000001
  0
LINE
  5
74
100
AcDbEntity
  8
Plate holes
  6
ByLayer
 62
  256
370
   -1
100
AcDbLine
 10
35.35
 20
81.85000000000001
 11
49.15
 21
81.85000000000001
  0
LINE
  5
75
100
AcDbEntity
  8
Plate holes
  6
ByLayer
 62
  256
370
   -1
100
AcDbLine
 10
49.15
 20
81.85000000000001
 11
49.15
 21
95.65000000000001
  0
LINE
  5
76
100
AcDbEntity
  8
Plate holes
  6
ByLayer
 62
  256
370
   -1
100
AcDbLine
 10
52.35000000000001
 20
53.65
 11
66.15000000000001
 21
53.65
  0
LINE
  5
77
100
AcDbEntity
  8
Plate holes
  6
ByLayer
 62
  256
370
   -1
100
AcDbLine
 10
52.35000000000001
 20
53.65
 11
52.35000000000001
 21
39.85000000000001
  0
LINE
  5
78
100
AcDbEntity
  8
Plate holes
  6
ByLayer
 62
  256
370
   -1
100
AcDbLine
 10
52.35000000000001
 20
39.85000000000001
 11
66.15000000000001
 21
39.85000000000001
  0
LINE
  5
79
100
AcDbEntity
  8
Plate holes
  6
ByLayer
 62
  256
370
   -1
100
AcDbLine
 10
66.15000000000001
 20
39.85000000000001
 11
66.15000000000001
 21
53.65000000000001
  0
LINE
  5
7A
100
AcDbEntity
  8
Plate holes
  6
ByLayer
 62
  256
370
   -1
100
AcDbLine
 10
52.35000000000001
 20
70.65000000000001
 11
66.15000000000001
 21
70.65000000000001
  0
LINE
  5
7B
100
AcDbEntity
  8
Plate holes
  6
ByLayer
 62
  256
370
   -1
100
AcDbLine
 10
52.35000000000001
 20
70.65000000000001
 11
52.35000000000001
 21
56.85
  0
LINE
  5
7C
100
AcDbEntity
  8
Plate holes
  6
ByLayer
 62
  256
370
   -1
100
AcDbLine
 10
52.35000000000001
 20
56.85
 11
66.15000000000001
 21
56.85
  0
LINE
  5
7D
100
AcDbEntity
  8
Plate holes
  6
ByLayer
 62
  256
370
   -1
100
AcDbLine
 10
66.15000000000001
 20
56.85
 11
66.15000000000001
 21
70.65000000000001
  0
LINE
  5
7E
100
AcDbEntity
  8
Plate holes
  6
ByLayer
 62
  256
370
   -1
100
AcDbLine
 10
52.35000000000001
 20
87.65000000000001
 11
66.15000000000001
 21
87.65000000000001
  0
LINE
  5
7F
100
AcDbEntity
  8
Plate holes
  6
ByLayer
 62
  256
370
   -1
100
AcDbLine
 10
52.35000000000001
 20
87.65000000000001
 11
52.35000000000001
 21
73.85000000000001
  0
LINE
  5
80
100
AcDbEntity
  8
Plate holes
  6
ByLayer
 62
  256
370
   -1
100
AcDbLine
 10
52.35000000000001
 20
73.85000000000001
 11
66.15000000000001
 21
73.85000000000001
  0
LINE
  5
81
100
AcDbEntity
  8
Plate holes
  6
ByLayer
 62
  256
370
   -1
100
AcDbLine
 10
66.15000000000001
 20
73.85000000000001
 11
66.15000000000001
 21
87.65000000000001
  0
LINE
  5
82
100
AcDbEntity
  8
Plate holes
  6
ByLayer
 62
  256
370
   -1
100
AcDbLine
 10
69.34999999999999
 20
50.65
 11
83.15000000000001
 21
50.65
  0
LINE
  5
83
100
AcDbEntity
  8
Plate holes
  6
ByLayer
 62
  256
370
   -1
100
AcDbLine
 10
69.34999999999999
 20
50.65
 11
69.34999999999999
 21
36.85000000000001
  0
LINE
  5
84
100
AcDbEntity
  8
Plate holes
  6
ByLayer
 62
  256
370
   -1
100
AcDbLine
 10
69.34999999999999
 20
36.85000000000001
 11
83.15000000000001
 21
36.85000000000001
  0
LINE
  5
85
100
AcDbEntity
  8
Plate holes
  6
ByLayer
 62
  256
370
   -1
100
AcDbLine
 10
83.15000000000001
 20
36.85000000000001
 11
83.15000000000001
 21
50.65000000000001
  0
LINE
  5
86
100
AcDbEntity
  8
Plate holes
  6
ByLayer
 62
  256
370
   -1
100
AcDbLine
 10
69.34999999999999
 20
67.65000000000001
 11
83.15000000000001
 21
67.65000000000001
  0
LINE
  5
87
100
AcDbEntity
  8
Plate holes
  6
ByLayer
 62
  256
370
   -1
100
AcDbLine
 10
69.34999999999999
 20
67.65000000000001
 11
69.34999999999999
 21
53.85
  0
LINE
  5
88
100
AcDbEntity
  8
Plate holes
  6
ByLayer
 62
  256
370
   -1
100
AcDbLine
 10
69.34999999999999
 20
53.85
 11
83.15000000000001
 21
53.85
  0
LINE
  5
89
100
AcDbEntity
  8
Plate holes
  6
ByLayer
 62
  256
370
   -1
100
AcDbLine
 10
83.15000000000001
 20
53.85
 11
83.15000000000001
 21
67.65000000000001
  0
LINE
  5
8A
100
AcDbEntity
  8
Plate holes
  6
ByLayer
 62
  256
370
   -1
100
AcDbLine
 10
69.34999999999999
 20
84.65000000000001
 11
83.15000000000001
 21
84.65000000000001
  0
LINE
  5
8B
100
AcDbEntity
  8
Plate holes
  6
ByLayer
 62
  256
370
   -1
100
AcDbLine
 10
69.34999999999999
 20
84.65000000000001
 11
69.34999999999999
 21
70.85000000000001
  0
LINE
  5
8C
100
AcDbEntity
  8
Plate holes
  6
ByLayer
 62
  256
370
   -1
100
AcDbLine
 10
69.34999999999999
 20
70.85000000000001
 11
83.15000000000001
 21
70.85000000000001
  0
LINE
  5
8D
100
AcDbEntity
  8
Plate holes
  6
ByLayer
 62
  256
370
   -1
100
AcDbLine
 10
83.15000000000001
 20
70.85000000000001
 11
83.15000000000001
 21
84.65000000000001
  0
LINE
  5
8E
100
AcDbEntity
  8
Plate holes
  6
ByLayer
 62
  256
370
   -1
100
AcDbLine
 10
52.35
 20
33.65
 11
66.15000000000001
 21
33.65
  0
LINE
  5
8F
100
AcDbEntity
  8
Plate holes
  6
ByLayer
 62
  256
370
   -1
100
AcDbLine
 10
52.35
 20
33.65
 11
52.35
 21
19.85
  0
LINE
  5
90
100
AcDbEntity
  8
Plate holes
  6
ByLayer
 62
  256
370
   -1
100
AcDbLine
 10
52.35
 20
19.85
 11
66.15000000000001
 21
19.85
  0
LINE
  5
91
100
AcDbEntity
  8
Plate holes
  6
ByLayer
 62
  256
370
   -1
100
AcDbLine
 10
66.15000000000001
 20
19.85
 11
66.15000000000001
 21
33.65000000000001
  0
LINE
  5
92
100
AcDbEntity
  8
Plate holes
  6
ByLayer
 62
  256
370
   -1
100
AcDbLine
 10
32.16653949462416
 20
31.09349621465683
 11
45.79663859483706
 21
33.25229183221202
  0
LINE
  5
93
100
AcDbEntity
  8
Plate holes
  6
ByLayer
 62
  256
370
   -1
100
AcDbLine
 10
32.16653949462416
 20
31.09349621465683
 11
34.32533511217935
 21
17.46339711444394
  0
LINE
  5
94
100
AcDbEntity
  8
Plate holes
  6
ByLayer
 62
  256
370
   -1
100
AcDbLine
 10
34.32533511217935
 20
17.46339711444394
 11
47.95543421239225
 21
19.62219273199912
  0
LINE
  5
95
100
AcDbEntity
  8
Plate holes
  6
ByLayer
 62
  256
370
   -1
100
AcDbLine
 10
47.95543421239225
 20
19.62219273199912
 11
45.79663859483706
 21
33.25229183221202
  0
LINE
  5
96
100
AcDbEntity
  8
Plate holes
  6
ByLayer
 62
  256
370
   -1
100
AcDbLine
 10
73.47501594880757
 20
32.37338569402179
 11
86.86509697141632
 21
29.03486353474638
  0
LINE
  5
97
100
AcDbEntity
  8
Plate holes
  6
ByLayer
 62
  256
370
   -1
100
AcDbLine
 10
73.47501594880757
 20
32.37338569402179
 11
70.13649378953215
 21
18.98330467141305
  0
LINE
  5
98
100
AcDbEntity
  8
Plate holes
  6
ByLayer
 62
  256
370
   -1
100
AcDbLine
 10
70.13649378953215
 20
18.98330467141305
 11
83.52657481214091
 21
15.64478251213763
  0
LINE
  5
99
100
AcDbEntity
  8
Plate holes
  6
ByLayer
 62
  256
370
   -1
100
AcDbLine
 10
83.52657481214091
 20
15.64478251213763
 11
86.86509697141632
 21
29.03486353474639
  0
LINE
  5
9A
100
AcDbEntity
  8
Plate holes
  6
ByLayer
 62
  256
370
   -1
100
AcDbLine
 10
96.14057420073119
 20
23.35531778739806
 11
106.3959727923192
 21
14.12131541964582
  0
LINE
  5
9B
100
AcDbEntity
  8
Plate holes
  6
ByLayer
 62
  256
370
   -1
100
AcDbLine
 10
96.14057420073119
 20
23.35531778739806
 11
86.90657183297895
 21
13.09991919581002
  0
LINE
  5
9C
100
AcDbEntity
  8
Plate holes
  6
ByLayer
 62
  256
370
   -1
100
AcDbLine
 10
86.90657183297895
 20
13.09991919581002
 11
97.16197042456699
 21
3.865916828057781
  0
LINE
  5
9D
100
AcDbEntity
  8
Plate holes
  6
ByLayer
 62
  256
370
   -1
100
AcDbLine
 10
97.16197042456699
 20
3.865916828057781
 11
106.3959727923192
 21
14.12131541964582
  0
ARC
  5
9E
100
AcDbEntity
  8
Plate contour
  6
ByLayer
 62
  256
370
   -1
100
AcDbCircle
 10
15.5
 20
82
 40
1.5
100
AcDbArc
 50
270
 51
0
  0
ARC
  5
9F
100
AcDbEntity
  8
Plate contour
  6
ByLayer
 62
  256
370
   -1
100
AcDbCircle
 10
51.99999999999999
 20
90.5
 40
1.5
100
AcDbArc
 50
180.0000000000003
 51
270
  0
ARC
  5
A0
100
AcDbEntity
  8
Plate contour
  6
ByLayer
 62
  256
370
   -1
100
AcDbCircle
 10
69
 20
87.5
 40
1.5
100
AcDbArc
 50
180
 51
270
  0
LINE
  5
A1
100
AcDbEntity
  8
Plate contour
  6
ByLayer
 62
  256
370
   -1
100
AcDbLine
 10
1.499999999999996
 20
80.5
 11
15.5
 21
80.5
  0
ARC
  5
A2
100
AcDbEntity
  8
Plate contour
  6
ByLayer
 62
  256
370
   -1
100
AcDbCircle
 10
1.499999999999996
 20
79
 40
1.5
100
AcDbArc
 50
90
 51
180.0000000000003
  0
LINE
  5
A3
100
AcDbEntity
  8
Plate contour
  6
ByLayer
 62
  256
370
   -1
100
AcDbLine
 10
-8.935343280584001e-16
 20
31.5
 11
-3.525013956836773e-15
 21
79
  0
ARC
  5
A4
100
AcDbEntity
  8
Plate contour
  6
ByLayer
 62
  256
370
   -1
100
AcDbCircle
 10
1.499999999999999
 20
31.5
 40
1.5
100
AcDbArc
 50
180
 51
270
  0
LINE
  5
A5
100
AcDbEntity
  8
Plate contour
  6
ByLayer
 62
  256
370
   -1
100
AcDbLine
 10
1.499999999999999
 20
30
 11
29.69178333257058
 21
30
  0
ARC
  5
A6
100
AcDbEntity
  8
Plate contour
  6
ByLayer
 62
  256
370
   -1
100
AcDbCircle
 10
29.69178333257058
 20
28.5
 40
1.5
100
AcDbArc
 50
8.999999999999975
 51
90
  0
LINE
  5
A7
100
AcDbEntity
  8
Plate contour
  6
ByLayer
 62
  256
370
   -1
100
AcDbLine
 10
17
 20
92.5
 11
17
 21
82
  0
ARC
  5
A8
100
AcDbEntity
  8
Plate contour
  6
ByLayer
 62
  256
370
   -1
100
AcDbCircle
 10
18.5
 20
92.5
 40
1.5
100
AcDbArc
 50
90
 51
180
  0
LINE
  5
A9
100
AcDbEntity
  8
Plate contour
  6
ByLayer
 62
  256
370
   -1
100
AcDbLine
 10
18.5
 20
94
 11
32.49999999999999
 21
94
  0
ARC
  5
AA
100
AcDbEntity
  8
Plate contour
  6
ByLayer
 62
  256
370
   -1
100
AcDbCircle
 10
32.49999999999999
 20
95.5
 40
1.5
100
AcDbArc
 50
270
 51
0
  0
LINE
  5
AB
100
AcDbEntity
  8
Plate contour
  6
ByLayer
 62
  256
370
   -1
100
AcDbLine
 10
33.99999999999999
 20
95.5
 11
33.99999999999999
 21
95.5
  0
ARC
  5
AC
100
AcDbEntity
  8
Plate contour
  6
ByLayer
 62
  256
370
   -1
100
AcDbCircle
 10
35.49999999999999
 20
95.5
 40
1.5
100
AcDbArc
 50
90
 51
180
  0
LINE
  5
AD
100
AcDbEntity
  8
Plate contour
  6
ByLayer
 62
  256
370
   -1
100
AcDbLine
 10
35.49999999999999
 20
97
 11
48.99999999999998
 21
97
  0
LINE
  5
AE
100
AcDbEntity
  8
Plate contour
  6
ByLayer
 62
  256
370
   -1
100
AcDbLine
 10
50.49999999999999
 20
90.5
 11
50.49999999999998
 21
95.5
  0
ARC
  5
AF
100
AcDbEntity
  8
Plate contour
  6
ByLayer
 62
  256
370
   -1
100
AcDbCircle
 10
48.99999999999998
 20
95.5
 40
1.5
100
AcDbArc
 50
0
 51
90
  0
LINE
  5
B0
100
AcDbEntity
  8
Plate contour
  6
ByLayer
 62
  256
370
   -1
100
AcDbLine
 10
51.99999999999999
 20
89
 11
66
 21
89
  0
LINE
  5
B1
100
AcDbEntity
  8
Plate contour
  6
ByLayer
 62
  256
370
   -1
100
AcDbLine
 10
67.5
 20
87.5
 11
67.5
 21
87.5
  0
ARC
  5
B2
100
AcDbEntity
  8
Plate contour
  6
ByLayer
 62
  256
370
   -1
100
AcDbCircle
 10
66
 20
87.5
 40
1.5
100
AcDbArc
 50
0
 51
90
  0
ARC
  5
B3
100
AcDbEntity
  8
Plate contour
  6
ByLayer
 62
  256
370
   -1
100
AcDbCircle
 10
51.86105120473854
 20
-11.5
 40
30
100
AcDbArc
 50
89.99999999999999
 51
99.00000000000001
  0
LINE
  5
B4
100
AcDbEntity
  8
Plate contour
  6
ByLayer
 62
  256
370
   -1
100
AcDbLine
 10
31.17331584346328
 20
28.73465169756034
 11
32.96849068261987
 21
17.40036383772889
  0
LINE
  5
B5
100
AcDbEntity
  8
Plate contour
  6
ByLayer
 62
  256
370
   -1
100
AcDbLine
 10
34.68467489107292
 20
16.15348302439654
 11
47.16801725353162
 21
18.13065021785413
  0
ARC
  5
B6
100
AcDbEntity
  8
Plate contour
  6
ByLayer
 62
  256
370
   -1
100
AcDbCircle
 10
34.45002319351258
 20
17.63501553528924
 40
1.5
100
AcDbArc
 50
189.0000000000001
 51
278.9999999999999
  0
LINE
  5
B7
100
AcDbEntity
  8
Plate contour
  6
ByLayer
 62
  256
370
   -1
100
AcDbLine
 10
62.81533302876232
 20
18.5
 11
51.86105120473855
 21
18.5
  0
ARC
  5
B8
100
AcDbEntity
  8
Plate contour
  6
ByLayer
 62
  256
370
   -1
100
AcDbCircle
 10
62.81533302876231
 20
-11.5
 40
30
100
AcDbArc
 50
75.99574486375084
 51
89.99999999999999
  0
LINE
  5
B9
100
AcDbEntity
  8
Plate contour
  6
ByLayer
 62
  256
370
   -1
100
AcDbLine
 10
70.07515168021531
 20
17.60833270986188
 11
78.73045694412563
 21
15.44963996660947
  0
ARC
  5
BA
100
AcDbEntity
  8
Plate contour
  6
ByLayer
 62
  256
370
   -1
100
AcDbCircle
 10
73.89057784315696
 20
-3.95591517329845
 40
20
100
AcDbArc
 50
48.15825874271508
 51
75.99574486375083
  0
ARC
  5
BB
100
AcDbEntity
  8
Plate contour
  6
ByLayer
 62
  256
370
   -1
100
AcDbCircle
 10
97.1508682916992
 20
4.077758142833218
 40
1.5
100
AcDbArc
 50
228.0000000000001
 51
317.9999999999998
  0
CIRCLE
  5
BC
100
AcDbEntity
  8
Plate contour
  6
ByLayer
 62
  256
370
   -1
100
AcDbCircle
 10
17.14999999999994
 20
77.25000000000001
 40
1
  0
CIRCLE
  5
BD
100
AcDbEntity
  8
Plate contour
  6
ByLayer
 62
  256
370
   -1
100
AcDbCircle
 10
24
 20
37
 40
1
  0
CIRCLE
  5
BE
100
AcDbEntity
  8
Plate contour
  6
ByLayer
 62
  256
370
   -1
100
AcDbCircle
 10
68.15000000000003
 20
69.25000000000001
 40
1
  0
CIRCLE
  5
BF
100
AcDbEntity
  8
Plate contour
  6
ByLayer
 62
  256
370
   -1
100
AcDbCircle
 10
90
 20
23
 40
1
  0
LINE
  5
C0
100
AcDbEntity
  8
RPi pico
  6
ByLayer
 62
  256
370
   -1
100
AcDbLine
 10
0
 20
-60
 11
3.245314017740486e-15
 21
-7
  0
LINE
  5
C1
100
AcDbEntity
  8
RPi pico
  6
ByLayer
 62
  256
370
   -1
100
AcDbLine
 10
0
 20
-60
 11
23
 21
-60
  0
LINE
  5
C2
100
AcDbEntity
  8
RPi pico
  6
ByLayer
 62
  256
370
   -1
100
AcDbLine
 10
23
 20
-60
 11
23
 21
-7
  0
LINE
  5
C3
100
AcDbEntity
  8
RPi pico
  6
ByLayer
 62
  256
370
   -1
100
AcDbLine
 10
3.245314017740486e-15
 20
-7
 11
23
 21
-7
  0
ARC
  5
C4
100
AcDbEntity
  8
RPi pico
  6
ByLayer
 62
  256
370
   -1
100
AcDbCircle
 10
20.5
 20
-58.50000000000003
 40
0.7500000000000129
100
AcDbArc
 50
180
 51
359.9999999999999
  0
ARC
  5
C5
100
AcDbEntity
  8
RPi pico
  6
ByLayer
 62
  256
370
   -1
100
AcDbCircle
 10
2.500000000000003
 20
-9
 40
0.7500000000008886
100
AcDbArc
 50
0
 51
179.9999518625235
  0
ARC
  5
C6
100
AcDbEntity
  8
RPi pico
  6
ByLayer
 62
  256
370
   -1
100
AcDbCircle
 10
20.5
 20
-9
 40
0.75
100
AcDbArc
 50
0
 51
179.9999121334773
  0
LINE
  5
C7
100
AcDbEntity
  8
RPi pico
  6
ByLayer
 62
  256
370
   -1
100
AcDbLine
 10
19.75
 20
-58.50000000000003
 11
19.75000000000088
 21
-8.999998849829907
  0
LINE
  5
C8
100
AcDbEntity
  8
RPi pico
  6
ByLayer
 62
  256
370
   -1
100
AcDbLine
 10
21.25000000000001
 20
-8.999999201175704
 11
21.25000000000001
 21
-58.50000000000004
  0
LINE
  5
C9
100
AcDbEntity
  8
RPi pico
  6
ByLayer
 62
  256
370
   -1
100
AcDbLine
 10
3.250000000000888
 20
-8.999999898165129
 11
3.25
 21
-58
  0
LINE
  5
CA
100
AcDbEntity
  8
RPi pico
  6
ByLayer
 62
  256
370
   -1
100
AcDbLine
 10
1.750000000000001
 20
-58.0000000309679
 11
1.749999999999379
 21
-8.999999369881905
  0
ARC
  5
CB
100
AcDbEntity
  8
RPi pico
  6
ByLayer
 62
  256
370
   -1
100
AcDbCircle
 10
2.5
 20
-58
 40
0.7499999999999998
100
AcDbArc
 50
180
 51
0
  0
LINE
  5
CC
100
AcDbEntity
  8
Plate holes
  6
ByLayer
 62
  256
370
   -1
100
AcDbLine
 10
218.65
 20
45.15
 11
204.85
 21
45.15
  0
LINE
  5
CD
100
AcDbEntity
  8
Plate holes
  6
ByLayer
 62
  256
370
   -1
100
AcDbLine
 10
218.65
 20
45.15
 11
218.65
 21
31.35
  0
LINE
  5
CE
100
AcDbEntity
  8
Plate holes
  6
ByLayer
 62
  256
370
   -1
100
AcDbLine
 10
218.65
 20
31.35
 11
204.85
 21
31.35
  0
LINE
  5
CF
100
AcDbEntity
  8
Plate holes
  6
ByLayer
 62
  256
370
   -1
100
AcDbLine
 10
204.85
 20
31.35
 11
204.85
 21
45.15000000000001
  0
LINE
  5
D0
100
AcDbEntity
  8
Plate holes
  6
ByLayer
 62
  256
370
   -1
100
AcDbLine
 10
218.65
 20
62.15
 11
204.85
 21
62.15
  0
LINE
  5
D1
100
AcDbEntity
  8
Plate holes
  6
ByLayer
 62
  256
370
   -1
100
AcDbLine
 10
218.65
 20
62.15
 11
218.65
 21
48.35
  0
LINE
  5
D2
100
AcDbEntity
  8
Plate holes
  6
ByLayer
 62
  256
370
   -1
100
AcDbLine
 10
218.65
 20
48.35
 11
204.85
 21
48.35
  0
LINE
  5
D3
100
AcDbEntity
  8
Plate holes
  6
ByLayer
 62
  256
370
   -1
100
AcDbLine
 10
204.85
 20
48.35
 11
204.85
 21
62.15
  0
LINE
  5
D4
100
AcDbEntity
  8
Plate holes
  6
ByLayer
 62
  256
370
   -1
100
AcDbLine
 10
218.65
 20
79.15000000000001
 11
204.85
 21
79.15000000000001
  0
LINE
  5
D5
100
AcDbEntity
  8
Plate holes
  6
ByLayer
 62
  256
370
   -1
100
AcDbLine
 10
218.65
 20
79.15000000000001
 11
218.65
 21
65.35000000000001
  0
LINE
  5
D6
100
AcDbEntity
  8
Plate holes
  6
ByLayer
 62
  256
370
   -1
100
AcDbLine
 10
218.65
 20
65.35000000000001
 11
204.85
 21
65.35000000000001
  0
LINE
  5
D7
100
AcDbEntity
  8
Plate holes
  6
ByLayer
 62
  256
370
   -1
100
AcDbLine
 10
204.85
 20
65.35000000000001
 11
204.85
 21
79.15000000000001
  0
LINE
  5
D8
100
AcDbEntity
  8
Plate holes
  6
ByLayer
 62
  256
370
   -1
100
AcDbLine
 10
201.65
 20
58.65
 11
187.85
 21
58.65
  0
LINE
  5
D9
100
AcDbEntity
  8
Plate holes
  6
ByLayer
 62
  256
370
   -1
100
AcDbLine
 10
201.65
 20
58.65
 11
201.65
 21
44.85
  0
LINE
  5
DA
100
AcDbEntity
  8
Plate holes
  6
ByLayer
 62
  256
370
   -1
100
AcDbLine
 10
201.65
 20
44.85
 11
187.85
 21
44.85
  0
LINE
  5
DB
100
AcDbEntity
  8
Plate holes
  6
ByLayer
 62
  256
370
   -1
100
AcDbLine
 10
187.85
 20
44.85
 11
187.85
 21
58.64999999999999
  0
LINE
  5
DC
100
AcDbEntity
  8
Plate holes
  6
ByLayer
 62
  256
370
   -1
100
AcDbLine
 10
201.65
 20
75.65000000000001
 11
187.85
 21
75.65000000000001
  0
LINE
  5
DD
100
AcDbEntity
  8
Plate holes
  6
ByLayer
 62
  256
370
   -1
100
AcDbLine
 10
201.65
 20
75.65000000000001
 11
201.65
 21
61.85
  0
LINE
  5
DE
100
AcDbEntity
  8
Plate holes
  6
ByLayer
 62
  256
370
   -1
100
AcDbLine
 10
201.65
 20
61.85
 11
187.85
 21
61.85
  0
LINE
  5
DF
100
AcDbEntity
  8
Plate holes
  6
ByLayer
 62
  256
370
   -1
100
AcDbLine
 10
187.85
 20
61.85
 11
187.85
 21
75.65000000000001
  0
LINE
  5
E0
100
AcDbEntity
  8
Plate holes
  6
ByLayer
 62
  256
370
   -1
100
AcDbLine
 10
201.65
 20
92.65000000000001
 11
187.85
 21
92.65000000000001
  0
LINE
  5
E1
100
AcDbEntity
  8
Plate holes
  6
ByLayer
 62
  256
370
   -1
100
AcDbLine
 10
201.65
 20
92.65000000000001
 11
201.65
 21
78.85000000000001
  0
LINE
  5
E2
100
AcDbEntity
  8
Plate holes
  6
ByLayer
 62
  256
370
   -1
100
AcDbLine
 10
201.65
 20
78.85000000000001
 11
187.85
 21
78.85000000000001
  0
LINE
  5
E3
100
AcDbEntity
  8
Plate holes
  6
ByLayer
 62
  256
370
   -1
100
AcDbLine
 10
187.85
 20
78.85000000000001
 11
187.85
 21
92.65000000000001
  0
LINE
  5
E4
100
AcDbEntity
  8
Plate holes
  6
ByLayer
 62
  256
370
   -1
100
AcDbLine
 10
184.65
 20
61.65
 11
170.85
 21
61.65
  0
LINE
  5
E5
100
AcDbEntity
  8
Plate holes
  6
ByLayer
 62
  256
370
   -1
100
AcDbLine
 10
184.65
 20
61.65
 11
184.65
 21
47.85
  0
LINE
  5
E6
100
AcDbEntity
  8
Plate holes
  6
ByLayer
 62
  256
370
   -1
100
AcDbLine
 10
184.65
 20
47.85
 11
170.85
 21
47.85
  0
LINE
  5
E7
100
AcDbEntity
  8
Plate holes
  6
ByLayer
 62
  256
370
   -1
100
AcDbLine
 10
170.85
 20
47.85
 11
170.85
 21
61.64999999999999
  0
LINE
  5
E8
100
AcDbEntity
  8
Plate holes
  6
ByLayer
 62
  256
370
   -1
100
AcDbLine
 10
184.65
 20
78.65000000000001
 11
170.85
 21
78.65000000000001
  0
LINE
  5
E9
100
AcDbEntity
  8
Plate holes
  6
ByLayer
 62
  256
370
   -1
100
AcDbLine
 10
184.65
 20
78.65000000000001
 11
184.65
 21
64.85000000000001
  0
LINE
  5
EA
100
AcDbEntity
  8
Plate holes
  6
ByLayer
 62
  256
370
   -1
100
AcDbLine
 10
184.65
 20
64.85000000000001
 11
170.85
 21
64.85000000000001
  0
LINE
  5
EB
100
AcDbEntity
  8
Plate holes
  6
ByLayer
 62
  256
370
   -1
100
AcDbLine
 10
170.85
 20
64.85000000000001
 11
170.85
 21
78.65000000000001
  0
LINE
  5
EC
100
AcDbEntity
  8
Plate holes
  6
ByLayer
 62
  256
370
   -1
100
AcDbLine
 10
184.65
 20
95.65000000000001
 11
170.85
 21
95.65000000000001
  0
LINE
  5
ED
100
AcDbEntity
  8
Plate holes
  6
ByLayer
 62
  256
370
   -1
100
AcDbLine
 10
184.65
 20
95.65000000000001
 11
184.65
 21
81.85000000000001
  0
LINE
  5
EE
100
AcDbEntity
  8
Plate holes
  6
ByLayer
 62
  256
370
   -1
100
AcDbLine
 10
184.65
 20
81.85000000000001
 11
170.85
 21
81.85000000000001
  0
LINE
  5
EF
100
AcDbEntity
  8
Plate holes
  6
ByLayer
 62
  256
370
   -1
100
AcDbLine
 10
170.85
 20
81.85000000000001
 11
170.85
 21
95.65000000000001
  0
LINE
  5
F0
100
AcDbEntity
  8
Plate holes
  6
ByLayer
 62
  256
370
   -1
100
AcDbLine
 10
167.65
 20
53.65
 11
153.85
 21
53.65
  0
LINE
  5
F1
100
AcDbEntity
  8
Plate holes
  6
ByLayer
 62
  256
370
   -1
100
AcDbLine
 10
167.65
 20
53.65
 11
167.65
 21
39.85000000000001
  0
LINE
  5
F2
100
AcDbEntity
  8
Plate holes
  6
ByLayer
 62
  256
370
   -1
100
AcDbLine
 10
167.65
 20
39.85000000000001
 11
153.85
 21
39.85000000000001
  0
LINE
  5
F3
100
AcDbEntity
  8
Plate holes
  6
ByLayer
 62
  256
370
   -1
100
AcDbLine
 10
153.85
 20
39.85000000000001
 11
153.85
 21
53.64999999999999
  0
LINE
  5
F4
100
AcDbEntity
  8
Plate holes
  6
ByLayer
 62
  256
370
   -1
100
AcDbLine
 10
167.65
 20
70.65000000000001
 11
153.85
 21
70.65000000000001
  0
LINE
  5
F5
100
AcDbEntity
  8
Plate holes
  6
ByLayer
 62
  256
370
   -1
100
AcDbLine
 10
167.65
 20
70.65000000000001
 11
167.65
 21
56.85
  0
LINE
  5
F6
100
AcDbEntity
  8
Plate holes
  6
ByLayer
 62
  256
370
   -1
100
AcDbLine
 10
167.65
 20
56.85
 11
153.85
 21
56.85
  0
LINE
  5
F7
100
AcDbEntity
  8
Plate holes
  6
ByLayer
 62
  256
370
   -1
100
AcDbLine
 10
153.85
 20
56.85
 11
153.85
 21
70.65000000000001
  0
LINE
  5
F8
100
AcDbEntity
  8
Plate holes
  6
ByLayer
 62
  256
370
   -1
100
AcDbLine
 10
167.65
 20
87.65000000000001
 11
153.85
 21
87.65000000000001
  0
LINE
  5
F9
100
AcDbEntity
  8
Plate holes
  6
ByLayer
 62
  256
370
   -1
100
AcDbLine
 10
167.65
 20
87.65000000000001
 11
167.65
 21
73.85000000000001
  0
LINE
  5
FA
100
AcDbEntity
  8
Plate holes
  6
ByLayer
 62
  256
370
   -1
100
AcDbLine
 10
167.65
 20
73.85000000000001
 11
153.85
 21
73.85000000000001
  0
LINE
  5
FB
100
AcDbEntity
  8
Plate holes
  6
ByLayer
 62
  256
370
   -1
100
AcDbLine
 10
153.85
 20
73.85000000000001
 11
153.85
 21
87.65000000000001
  0
LINE
  5
FC
100
AcDbEntity
  8
Plate holes
  6
ByLayer
 62
  256
370
   -1
100
AcDbLine
 10
150.65
 20
50.65
 11
136.85
 21
50.65
  0
LINE
  5
FD
100
AcDbEntity
  8
Plate holes
  6
ByLayer
 62
  256
370
   -1
100
AcDbLine
 10
150.65
 20
50.65
 11
150.65
 21
36.85000000000001
  0
LINE
  5
FE
100
AcDbEntity
  8
Plate holes
  6
ByLayer
 62
  256
370
   -1
100
AcDbLine
 10
150.65
 20
36.85000000000001
 11
136.85
 21
36.85000000000001
  0
LINE
  5
FF
100
AcDbEntity
  8
Plate holes
  6
ByLayer
 62
  256
370
   -1
100
AcDbLine
 10
136.85
 20
36.85000000000001
 11
136.85
 21
50.65000000000001
  0
LINE
  5
100
100
AcDbEntity
  8
Plate holes
  6
ByLayer
 62
  256
370
   -1
100
AcDbLine
 10
150.65
 20
67.65000000000001
 11
136.85
 21
67.65000000000001
  0
LINE
  5
101
100
AcDbEntity
  8
Plate holes
  6
ByLayer
 62
  256
370
   -1
100
AcDbLine
 10
150.65
 20
67.65000000000001
 11
150.65
 21
53.85
  0
LINE
  5
102
100
AcDbEntity
  8
Plate holes
  6
ByLayer
 62
  256
370
   -1
100
AcDbLine
 10
150.65
 20
53.85
 11
136.85
 21
53.85
  0
LINE
  5
103
100
AcDbEntity
  8
Plate holes
  6
ByLayer
 62
  256
370
   -1
100
AcDbLine
 10
136.85
 20
53.85
 11
136.85
 21
67.65000000000001
  0
LINE
  5
104
100
AcDbEntity
  8
Plate holes
  6
ByLayer
 62
  256
370
   -1
100
AcDbLine
 10
150.65
 20
84.65000000000001
 11
136.85
 21
84.65000000000001
  0
LINE
  5
105
100
AcDbEntity
  8
Plate holes
  6
ByLayer
 62
  256
370
   -1
100
AcDbLine
 10
150.65
 20
84.65000000000001
 11
150.65
 21
70.85000000000001
  0
LINE
  5
106
100
AcDbEntity
  8
Plate holes
  6
ByLayer
 62
  256
370
   -1
100
AcDbLine
 10
150.65
 20
70.85000000000001
 11
136.85
 21
70.85000000000001
  0
LINE
  5
107
100
AcDbEntity
  8
Plate holes
  6
ByLayer
 62
  256
370
   -1
100
AcDbLine
 10
136.85
 20
70.85000000000001
 11
136.85
 21
84.65000000000001
  0
LINE
  5
108
100
AcDbEntity
  8
Plate holes
  6
ByLayer
 62
  256
370
   -1
100
AcDbLine
 10
167.65
 20
33.65
 11
153.85
 21
33.65
  0
LINE
  5
109
100
AcDbEntity
  8
Plate holes
  6
ByLayer
 62
  256
370
   -1
100
AcDbLine
 10
167.65
 20
33.65
 11
167.65
 21
19.85
  0
LINE
  5
10A
100
AcDbEntity
  8
Plate holes
  6
ByLayer
 62
  256
370
   -1
100
AcDbLine
 10
167.65
 20
19.85
 11
153.85
 21
19.85
  0
LINE
  5
10B
100
AcDbEntity
  8
Plate holes
  6
ByLayer
 62
  256
370
   -1
100
AcDbLine
 10
153.85
 20
19.85
 11
153.85
 21
33.65000000000001
  0
LINE
  5
10C
100
AcDbEntity
  8
Plate holes
  6
ByLayer
 62
  256
370
   -1
100
AcDbLine
 10
187.8334605053759
 20
31.09349621465683
 11
174.2033614051629
 21
33.25229183221202
  0
LINE
  5
10D
100
AcDbEntity
  8
Plate holes
  6
ByLayer
 62
  256
370
   -1
100
AcDbLine
 10
187.8334605053759
 20
31.09349621465683
 11
185.6746648878207
 21
17.46339711444393
  0
LINE
  5
10E
100
AcDbEntity
  8
Plate holes
  6
ByLayer
 62
  256
370
   -1
100
AcDbLine
 10
185.6746648878207
 20
17.46339711444393
 11
172.0445657876078
 21
19.62219273199912
  0
LINE
  5
10F
100
AcDbEntity
  8
Plate holes
  6
ByLayer
 62
  256
370
   -1
100
AcDbLine
 10
172.0445657876078
 20
19.62219273199912
 11
174.2033614051629
 21
33.25229183221202
  0
LINE
  5
110
100
AcDbEntity
  8
Plate holes
  6
ByLayer
 62
  256
370
   -1
100
AcDbLine
 10
146.5249840511924
 20
32.37338569402179
 11
133.1349030285837
 21
29.03486353474637
  0
LINE
  5
111
100
AcDbEntity
  8
Plate holes
  6
ByLayer
 62
  256
370
   -1
100
AcDbLine
 10
146.5249840511924
 20
32.37338569402179
 11
149.8635062104678
 21
18.98330467141305
  0
LINE
  5
112
100
AcDbEntity
  8
Plate holes
  6
ByLayer
 62
  256
370
   -1
100
AcDbLine
 10
149.8635062104678
 20
18.98330467141305
 11
136.4734251878591
 21
15.64478251213763
  0
LINE
  5
113
100
AcDbEntity
  8
Plate holes
  6
ByLayer
 62
  256
370
   -1
100
AcDbLine
 10
136.4734251878591
 20
15.64478251213763
 11
133.1349030285837
 21
29.03486353474639
  0
LINE
  5
114
100
AcDbEntity
  8
Plate holes
  6
ByLayer
 62
  256
370
   -1
100
AcDbLine
 10
123.8594257992688
 20
23.35531778739806
 11
113.6040272076808
 21
14.12131541964582
  0
LINE
  5
115
100
AcDbEntity
  8
Plate holes
  6
ByLayer
 62
  256
370
   -1
100
AcDbLine
 10
123.8594257992688
 20
23.35531778739806
 11
133.093428167021
 21
13.09991919581002
  0
LINE
  5
116
100
AcDbEntity
  8
Plate holes
  6
ByLayer
 62
  256
370
   -1
100
AcDbLine
 10
133.093428167021
 20
13.09991919581002
 11
122.838029575433
 21
3.865916828057781
  0
LINE
  5
117
100
AcDbEntity
  8
Plate holes
  6
ByLayer
 62
  256
370
   -1
100
AcDbLine
 10
122.838029575433
 20
3.865916828057781
 11
113.6040272076808
 21
14.12131541964582
  0
ARC
  5
118
100
AcDbEntity
  8
Plate contour
  6
ByLayer
 62
  256
370
   -1
100
AcDbCircle
 10
204.5
 20
82
 40
1.5
100
AcDbArc
 50
180
 51
270
  0
ARC
  5
119
100
AcDbEntity
  8
Plate contour
  6
ByLayer
 62
  256
370
   -1
100
AcDbCircle
 10
168
 20
90.5
 40
1.5
100
AcDbArc
 50
270
 51
359.9999999999997
  0
ARC
  5
11A
100
AcDbEntity
  8
Plate contour
  6
ByLayer
 62
  256
370
   -1
100
AcDbCircle
 10
151
 20
87.5
 40
1.5
100
AcDbArc
 50
270
 51
0
  0
LINE
  5
11B
100
AcDbEntity
  8
Plate contour
  6
ByLayer
 62
  256
370
   -1
100
AcDbLine
 10
218.5
 20
80.5
 11
204.5
 21
80.5
  0
ARC
  5
11C
100
AcDbEntity
  8
Plate contour
  6
ByLayer
 62
  256
370
   -1
100
AcDbCircle
 10
218.5
 20
79
 40
1.5
100
AcDbArc
 50
359.9999999999997
 51
90
  0
LINE
  5
11D
100
AcDbEntity
  8
Plate contour
  6
ByLayer
 62
  256
370
   -1
100
AcDbLine
 10
220
 20
31.5
 11
220
 21
79
  0
ARC
  5
11E
100
AcDbEntity
  8
Plate contour
  6
ByLayer
 62
  256
370
   -1
100
AcDbCircle
 10
218.5
 20
31.5
 40
1.5
100
AcDbArc
 50
270
 51
0
  0
LINE
  5
11F
100
AcDbEntity
  8
Plate contour
  6
ByLayer
 62
  256
370
   -1
100
AcDbLine
 10
218.5
 20
30
 11
190.3082166674294
 21
30
  0
ARC
  5
120
100
AcDbEntity
  8
Plate contour
  6
ByLayer
 62
  256
370
   -1
100
AcDbCircle
 10
190.3082166674294
 20
28.5
 40
1.5
100
AcDbArc
 50
90
 51
171
  0
LINE
  5
121
100
AcDbEntity
  8
Plate contour
  6
ByLayer
 62
  256
370
   -1
100
AcDbLine
 10
203
 20
92.5
 11
203
 21
82
  0
ARC
  5
122
100
AcDbEntity
  8
Plate contour
  6
ByLayer
 62
  256
370
   -1
100
AcDbCircle
 10
201.5
 20
92.5
 40
1.5
100
AcDbArc
 50
0
 51
90
  0
LINE
  5
123
100
AcDbEntity
  8
Plate contour
  6
ByLayer
 62
  256
370
   -1
100
AcDbLine
 10
201.5
 20
94
 11
187.5
 21
94
  0
ARC
  5
124
100
AcDbEntity
  8
Plate contour
  6
ByLayer
 62
  256
370
   -1
100
AcDbCircle
 10
187.5
 20
95.5
 40
1.5
100
AcDbArc
 50
180
 51
270
  0
LINE
  5
125
100
AcDbEntity
  8
Plate contour
  6
ByLayer
 62
  256
370
   -1
100
AcDbLine
 10
186
 20
95.5
 11
186
 21
95.5
  0
ARC
  5
126
100
AcDbEntity
  8
Plate contour
  6
ByLayer
 62
  256
370
   -1
100
AcDbCircle
 10
184.5
 20
95.5
 40
1.5
100
AcDbArc
 50
0
 51
90
  0
LINE
  5
127
100
AcDbEntity
  8
Plate contour
  6
ByLayer
 62
  256
370
   -1
100
AcDbLine
 10
184.5
 20
97
 11
171
 21
97
  0
LINE
  5
128
100
AcDbEntity
  8
Plate contour
  6
ByLayer
 62
  256
370
   -1
100
AcDbLine
 10
169.5
 20
90.5
 11
169.5
 21
95.5
  0
ARC
  5
129
100
AcDbEntity
  8
Plate contour
  6
ByLayer
 62
  256
370
   -1
100
AcDbCircle
 10
171
 20
95.5
 40
1.5
100
AcDbArc
 50
90
 51
180
  0
LINE
  5
12A
100
AcDbEntity
  8
Plate contour
  6
ByLayer
 62
  256
370
   -1
100
AcDbLine
 10
168
 20
89
 11
154
 21
89
  0
LINE
  5
12B
100
AcDbEntity
  8
Plate contour
  6
ByLayer
 62
  256
370
   -1
100
AcDbLine
 10
152.5
 20
87.5
 11
152.5
 21
87.5
  0
ARC
  5
12C
100
AcDbEntity
  8
Plate contour
  6
ByLayer
 62
  256
370
   -1
100
AcDbCircle
 10
154
 20
87.5
 40
1.5
100
AcDbArc
 50
90
 51
180
  0
LINE
  5
12D
100
AcDbEntity
  8
Plate contour
  6
ByLayer
 62
  256
370
   -1
100
AcDbLine
 10
151
 20
86
 11
137
 21
86
  0
ARC
  5
12E
100
AcDbEntity
  8
Plate contour
  6
ByLayer
 62
  256
370
   -1
100
AcDbCircle
 10
137
 20
84.5
 40
1.5
100
AcDbArc
 50
90
 51
180
  0
LINE
  5
12F
100
AcDbEntity
  8
Plate contour
  6
ByLayer
 62
  256
370
   -1
100
AcDbLine
 10
135.5
 20
84.5
 11
135.5
 21
32.18780527854251
  0
ARC
  5
130
100
AcDbEntity
  8
Plate contour
  6
ByLayer
 62
  256
370
   -1
100
AcDbCircle
 10
134
 20
32.18780527854251
 40
1.5
100
AcDbArc
 50
284.0000000000001
 51
2.544443745170813e-13
  0
ARC
  5
131
100
AcDbEntity
  8
Plate contour
  6
ByLayer
 62
  256
370
   -1
100
AcDbCircle
 10
113.8158685224562
 20
14.11021328677805
 40
1.5
100
AcDbArc
 50
132.0000000000001
 51
222.0000000000001
  0
ARC
  5
132
100
AcDbEntity
  8
Plate contour
  6
ByLayer
 62
  256
370
   -1
100
AcDbCircle
 10
168.1389487952615
 20
-11.5
 40
30
100
AcDbArc
 50
80.99999999999999
 51
90.00000000000001
  0
LINE
  5
133
100
AcDbEntity
  8
Plate contour
  6
ByLayer
 62
  256
370
   -1
100
AcDbLine
 10
188.8266841565367
 20
28.73465169756034
 11
187.0315093173801
 21
17.40036383772889
  0
LINE
  5
134
100
AcDbEntity
  8
Plate contour
  6
ByLayer
 62
  256
370
   -1
100
AcDbLine
 10
185.3153251089271
 20
16.15348302439654
 11
172.8319827464684
 21
18.13065021785413
  0
ARC
  5
135
100
AcDbEntity
  8
Plate contour
  6
ByLayer
 62
  256
370
   -1
100
AcDbCircle
 10
185.5499768064874
 20
17.63501553528924
 40
1.5
100
AcDbArc
 50
261.0000000000001
 51
350.9999999999999
  0
LINE
  5
136
100
AcDbEntity
  8
Plate contour
  6
ByLayer
 62
  256
370
   -1
100
AcDbLine
 10
157.1846669712377
 20
18.5
 11
168.1389487952615
 21
18.5
  0
ARC
  5
137
100
AcDbEntity
  8
Plate contour
  6
ByLayer
 62
  256
370
   -1
100
AcDbCircle
 10
157.1846669712377
 20
-11.5
 40
30
100
AcDbArc
 50
90.00000000000001
 51
104.0042551362492
  0
LINE
  5
138
100
AcDbEntity
  8
Plate contour
  6
ByLayer
 62
  256
370
   -1
100
AcDbLine
 10
149.9248483197847
 20
17.60833270986188
 11
141.2695430558744
 21
15.44963996660947
  0
ARC
  5
139
100
AcDbEntity
  8
Plate contour
  6
ByLayer
 62
  256
370
   -1
100
AcDbCircle
 10
146.109422156843
 20
-3.95591517329845
 40
20
100
AcDbArc
 50
104.0042551362492
 51
131.8417412572849
  0
LINE
  5
13A
100
AcDbEntity
  8
Plate contour
  6
ByLayer
 62
  256
370
   -1
100
AcDbLine
 10
121.7344144700847
 20
3.074062233294928
 11
112.7011512842401
 21
13.10651737723977
  0
ARC
  5
13B
100
AcDbEntity
  8
Plate contour
  6
ByLayer
 62
  256
370
   -1
100
AcDbCircle
 10
122.8491317083008
 20
4.077758142833218
 40
1.5
100
AcDbArc
 50
222.0000000000002
 51
311.9999999999999
  0
LINE
  5
13C
100
AcDbEntity
  8
Plate contour
  6
ByLayer
 62
  256
370
   -1
100
AcDbLine
 10
134.3628828433995
 20
30.7323616891285
 11
132.5440306704199
 21
30.27887090937254
  0
ARC
  5
13D
100
AcDbEntity
  8
Plate contour
  6
ByLayer
 62
  256
370
   -1
100
AcDbCircle
 10
132.9069135138194
 20
28.82342731995854
 40
1.5
100
AcDbArc
 50
104.0000000000001
 51
121.6509396909062
  0
LINE
  5
13E
100
AcDbEntity
  8
Plate contour
  6
ByLayer
 62
  256
370
   -1
100
AcDbLine
 10
132.1197991043205
 20
30.10031842978708
 11
123.3991324684285
 21
24.72463500877167
  0
LINE
  5
13F
100
AcDbEntity
  8
Plate contour
  6
ByLayer
 62
  256
370
   -1
100
AcDbLine
 10
123.1825509683892
 20
24.56246113715923
 11
112.8121726129179
 21
15.22493052499414
  0
ARC
  5
140
100
AcDbEntity
  8
Plate contour
  6
ByLayer
 62
  256
370
   -1
100
AcDbCircle
 10
124.1862468779274
 20
23.44774389894314
 40
1.5
100
AcDbArc
 50
121.6509396909061
 51
131.9999999999999
  0
CIRCLE
  5
141
100
AcDbEntity
  8
Plate contour
  6
ByLayer
 62
  256
370
   -1
100
AcDbCircle
 10
202.8500000000001
 20
77.25000000000001
 40
1
  0
CIRCLE
  5
142
100
AcDbEntity
  8
Plate contour
  6
ByLayer
 62
  256
370
   -1
100
AcDbCircle
 10
196
 20
37
 40
1
  0
CIRCLE
  5
143
100
AcDbEntity
  8
Plate contour
  6
ByLayer
 62
  256
370
   -1
100
AcDbCircle
 10
151.85
 20
69.25000000000001
 40
1
  0
CIRCLE
  5
144
100
AcDbEntity
  8
Plate contour
  6
ByLayer
 62
  256
370
   -1
100
AcDbCircle
 10
130
 20
23
 40
1
  0
ARC
  5
145
100
AcDbEntity
  8
Switches footprints
  6
ByLayer
 62
  256
370
   -1
100
AcDbCircle
 10
1.45
 20
18.55
 40
0.7
100
AcDbArc
 50
90
 51
180
  0
LINE
  5
146
100
AcDbEntity
  8
Switches footprints
  6
ByLayer
 62
  256
370
   -1
100
AcDbLine
 10
0.75
 20
18.55
 11
0.7499999999999991
 21
4.949999999999999
  0
ARC
  5
147
100
AcDbEntity
  8
Switches footprints
  6
ByLayer
 62
  256
370
   -1
100
AcDbCircle
 10
1.449999999999999
 20
4.949999999999999
 40
0.7
100
AcDbArc
 50
180
 51
270
  0
LINE
  5
148
100
AcDbEntity
  8
Switches footprints
  6
ByLayer
 62
  256
370
   -1
100
AcDbLine
 10
1.449999999999999
 20
4.25
 11
15.05
 21
4.25
  0
ARC
  5
149
100
AcDbEntity
  8
Switches footprints
  6
ByLayer
 62
  256
370
   -1
100
AcDbCircle
 10
15.05
 20
4.949999999999999
 40
0.7
100
AcDbArc
 50
270
 51
0
  0
LINE
  5
14A
100
AcDbEntity
  8
Switches footprints
  6
ByLayer
 62
  256
370
   -1
100
AcDbLine
 10
15.75
 20
4.949999999999999
 11
15.75
 21
18.55
  0
LINE
  5
14B
100
AcDbEntity
  8
Switches footprints
  6
ByLayer
 62
  256
370
   -1
100
AcDbLine
 10
1.45
 20
19.25
 11
15.05
 21
19.25
  0
ARC
  5
14C
100
AcDbEntity
  8
Switches footprints
  6
ByLayer
 62
  256
370
   -1
100
AcDbCircle
 10
15.05
 20
18.55
 40
0.7
100
AcDbArc
 50
0
 51
90
  0
ARC
  5
14D
100
AcDbEntity
  8
Switches footprints
  6
ByLayer
 62
  256
370
   -1
100
AcDbCircle
 10
1.45
 20
45.05
 40
0.7
100
AcDbArc
 50
90
 51
180
  0
LINE
  5
14E
100
AcDbEntity
  8
Switches footprints
  6
ByLayer
 62
  256
370
   -1
100
AcDbLine
 10
0.7500000000000001
 20
45.05
 11
0.7499999999999992
 21
31.45
  0
ARC
  5
14F
100
AcDbEntity
  8
Switches footprints
  6
ByLayer
 62
  256
370
   -1
100
AcDbCircle
 10
1.449999999999999
 20
31.45
 40
0.7
100
AcDbArc
 50
180
 51
270
  0
LINE
  5
150
100
AcDbEntity
  8
Switches footprints
  6
ByLayer
 62
  256
370
   -1
100
AcDbLine
 10
1.449999999999999
 20
30.75
 11
15.05
 21
30.75
  0
ARC
  5
151
100
AcDbEntity
  8
Switches footprints
  6
ByLayer
 62
  256
370
   -1
100
AcDbCircle
 10
15.05
 20
31.45
 40
0.7
100
AcDbArc
 50
270
 51
0
  0
LINE
  5
152
100
AcDbEntity
  8
Switches footprints
  6
ByLayer
 62
  256
370
   -1
100
AcDbLine
 10
15.75
 20
31.45
 11
15.75
 21
45.05000000000001
  0
LINE
  5
153
100
AcDbEntity
  8
Switches footprints
  6
ByLayer
 62
  256
370
   -1
100
AcDbLine
 10
1.45
 20
45.75
 11
15.05
 21
45.75
  0
ARC
  5
154
100
AcDbEntity
  8
Switches footprints
  6
ByLayer
 62
  256
370
   -1
100
AcDbCircle
 10
15.05
 20
45.05000000000001
 40
0.7
100
AcDbArc
 50
0
 51
90
  0
ARC
  5
155
100
AcDbEntity
  8
Switches footprints
  6
ByLayer
 62
  256
370
   -1
100
AcDbCircle
 10
1.45
 20
62.05
 40
0.7
100
AcDbArc
 50
90
 51
180
  0
LINE
  5
156
100
AcDbEntity
  8
Switches footprints
  6
ByLayer
 62
  256
370
   -1
100
AcDbLine
 10
0.7500000000000001
 20
62.05
 11
0.7499999999999992
 21
48.45
  0
ARC
  5
157
100
AcDbEntity
  8
Switches footprints
  6
ByLayer
 62
  256
370
   -1
100
AcDbCircle
 10
1.449999999999999
 20
48.45
 40
0.7
100
AcDbArc
 50
180
 51
270
  0
LINE
  5
158
100
AcDbEntity
  8
Switches footprints
  6
ByLayer
 62
  256
370
   -1
100
AcDbLine
 10
1.449999999999999
 20
47.75
 11
15.05
 21
47.75
  0
ARC
  5
159
100
AcDbEntity
  8
Switches footprints
  6
ByLayer
 62
  256
370
   -1
100
AcDbCircle
 10
15.05
 20
48.45
 40
0.7
100
AcDbArc
 50
270
 51
0
  0
LINE
  5
15A
100
AcDbEntity
  8
Switches footprints
  6
ByLayer
 62
  256
370
   -1
100
AcDbLine
 10
15.75
 20
48.45
 11
15.75
 21
62.05
  0
LINE
  5
15B
100
AcDbEntity
  8
Switches footprints
  6
ByLayer
 62
  256
370
   -1
100
AcDbLine
 10
1.45
 20
62.75
 11
15.05
 21
62.75
  0
ARC
  5
15C
100
AcDbEntity
  8
Switches footprints
  6
ByLayer
 62
  256
370
   -1
100
AcDbCircle
 10
15.05
 20
62.05
 40
0.7
100
AcDbArc
 50
0
 51
90
  0
ARC
  5
15D
100
AcDbEntity
  8
Switches footprints
  6
ByLayer
 62
  256
370
   -1
100
AcDbCircle
 10
1.45
 20
79.05
 40
0.7
100
AcDbArc
 50
90
 51
180
  0
LINE
  5
15E
100
AcDbEntity
  8
Switches footprints
  6
ByLayer
 62
  256
370
   -1
100
AcDbLine
 10
0.7500000000000001
 20
79.05
 11
0.7499999999999992
 21
65.45
  0
ARC
  5
15F
100
AcDbEntity
  8
Switches footprints
  6
ByLayer
 62
  256
370
   -1
100
AcDbCircle
 10
1.449999999999999
 20
65.45
 40
0.7
100
AcDbArc
 50
180
 51
270
  0
LINE
  5
160
100
AcDbEntity
  8
Switches footprints
  6
ByLayer
 62
  256
370
   -1
100
AcDbLine
 10
1.449999999999999
 20
64.75
 11
15.05
 21
64.75
  0
ARC
  5
161
100
AcDbEntity
  8
Switches footprints
  6
ByLayer
 62
  256
370
   -1
100
AcDbCircle
 10
15.05
 20
65.45
 40
0.7
100
AcDbArc
 50
270
 51
0
  0
LINE
  5
162
100
AcDbEntity
  8
Switches footprints
  6
ByLayer
 62
  256
370
   -1
100
AcDbLine
 10
15.75
 20
65.45
 11
15.75
 21
79.05
  0
LINE
  5
163
100
AcDbEntity
  8
Switches footprints
  6
ByLayer
 62
  256
370
   -1
100
AcDbLine
 10
1.45
 20
79.75
 11
15.05
 21
79.75
  0
ARC
  5
164
100
AcDbEntity
  8
Switches footprints
  6
ByLayer
 62
  256
370
   -1
100
AcDbCircle
 10
15.05
 20
79.05
 40
0.7
100
AcDbArc
 50
0
 51
90
  0
ARC
  5
165
100
AcDbEntity
  8
Switches footprints
  6
ByLayer
 62
  256
370
   -1
100
AcDbCircle
 10
18.45
 20
58.55
 40
0.7
100
AcDbArc
 50
90
 51
180
  0
LINE
  5
166
100
AcDbEntity
  8
Switches footprints
  6
ByLayer
 62
  256
370
   -1
100
AcDbLine
 10
17.75
 20
58.55
 11
17.75
 21
44.95
  0
ARC
  5
167
100
AcDbEntity
  8
Switches footprints
  6
ByLayer
 62
  256
370
   -1
100
AcDbCircle
 10
18.45
 20
44.95
 40
0.7
100
AcDbArc
 50
180
 51
270
  0
LINE
  5
168
100
AcDbEntity
  8
Switches footprints
  6
ByLayer
 62
  256
370
   -1
100
AcDbLine
 10
18.45
 20
44.25
 11
32.05
 21
44.25
  0
ARC
  5
169
100
AcDbEntity
  8
Switches footprints
  6
ByLayer
 62
  256
370
   -1
100
AcDbCircle
 10
32.05
 20
44.95
 40
0.7
100
AcDbArc
 50
270
 51
0
  0
LINE
  5
16A
100
AcDbEntity
  8
Switches footprints
  6
ByLayer
 62
  256
370
   -1
100
AcDbLine
 10
32.75
 20
44.95
 11
32.75
 21
58.55
  0
LINE
  5
16B
100
AcDbEntity
  8
Switches footprints
  6
ByLayer
 62
  256
370
   -1
100
AcDbLine
 10
18.45
 20
59.25
 11
32.05
 21
59.25
  0
ARC
  5
16C
100
AcDbEntity
  8
Switches footprints
  6
ByLayer
 62
  256
370
   -1
100
AcDbCircle
 10
32.05
 20
58.55
 40
0.7
100
AcDbArc
 50
0
 51
90
  0
ARC
  5
16D
100
AcDbEntity
  8
Switches footprints
  6
ByLayer
 62
  256
370
   -1
100
AcDbCircle
 10
18.45
 20
75.55
 40
0.7
100
AcDbArc
 50
90
 51
180
  0
LINE
  5
16E
100
AcDbEntity
  8
Switches footprints
  6
ByLayer
 62
  256
370
   -1
100
AcDbLine
 10
17.75
 20
75.55
 11
17.75
 21
61.95
  0
ARC
  5
16F
100
AcDbEntity
  8
Switches footprints
  6
ByLayer
 62
  256
370
   -1
100
AcDbCircle
 10
18.45
 20
61.95
 40
0.7
100
AcDbArc
 50
180
 51
270
  0
LINE
  5
170
100
AcDbEntity
  8
Switches footprints
  6
ByLayer
 62
  256
370
   -1
100
AcDbLine
 10
18.45
 20
61.25
 11
32.05
 21
61.25
  0
ARC
  5
171
100
AcDbEntity
  8
Switches footprints
  6
ByLayer
 62
  256
370
   -1
100
AcDbCircle
 10
32.05
 20
61.95
 40
0.7
100
AcDbArc
 50
270
 51
0
  0
LINE
  5
172
100
AcDbEntity
  8
Switches footprints
  6
ByLayer
 62
  256
370
   -1
100
AcDbLine
 10
32.75
 20
61.95
 11
32.75
 21
75.55
  0
LINE
  5
173
100
AcDbEntity
  8
Switches footprints
  6
ByLayer
 62
  256
370
   -1
100
AcDbLine
 10
18.45
 20
76.25
 11
32.05
 21
76.25
  0
ARC
  5
174
100
AcDbEntity
  8
Switches footprints
  6
ByLayer
 62
  256
370
   -1
100
AcDbCircle
 10
32.05
 20
75.55
 40
0.7
100
AcDbArc
 50
0
 51
90
  0
ARC
  5
175
100
AcDbEntity
  8
Switches footprints
  6
ByLayer
 62
  256
370
   -1
100
AcDbCircle
 10
18.45
 20
92.55
 40
0.7
100
AcDbArc
 50
90
 51
180
  0
LINE
  5
176
100
AcDbEntity
  8
Switches footprints
  6
ByLayer
 62
  256
370
   -1
100
AcDbLine
 10
17.75
 20
92.55
 11
17.75
 21
78.95
  0
ARC
  5
177
100
AcDbEntity
  8
Switches footprints
  6
ByLayer
 62
  256
370
   -1
100
AcDbCircle
 10
18.45
 20
78.95
 40
0.7
100
AcDbArc
 50
180
 51
270
  0
LINE
  5
178
100
AcDbEntity
  8
Switches footprints
  6
ByLayer
 62
  256
370
   -1
100
AcDbLine
 10
18.45
 20
78.25
 11
32.05
 21
78.25
  0
ARC
  5
179
100
AcDbEntity
  8
Switches footprints
  6
ByLayer
 62
  256
370
   -1
100
AcDbCircle
 10
32.05
 20
78.95
 40
0.7
100
AcDbArc
 50
270
 51
0
  0
LINE
  5
17A
100
AcDbEntity
  8
Switches footprints
  6
ByLayer
 62
  256
370
   -1
100
AcDbLine
 10
32.75
 20
78.95
 11
32.75
 21
92.55
  0
LINE
  5
17B
100
AcDbEntity
  8
Switches footprints
  6
ByLayer
 62
  256
370
   -1
100
AcDbLine
 10
18.45
 20
93.25
 11
32.05
 21
93.25
  0
ARC
  5
17C
100
AcDbEntity
  8
Switches footprints
  6
ByLayer
 62
  256
370
   -1
100
AcDbCircle
 10
32.05
 20
92.55
 40
0.7
100
AcDbArc
 50
0
 51
90
  0
ARC
  5
17D
100
AcDbEntity
  8
Switches footprints
  6
ByLayer
 62
  256
370
   -1
100
AcDbCircle
 10
35.45
 20
61.55
 40
0.7
100
AcDbArc
 50
90
 51
180
  0
LINE
  5
17E
100
AcDbEntity
  8
Switches footprints
  6
ByLayer
 62
  256
370
   -1
100
AcDbLine
 10
34.75
 20
61.55
 11
34.75
 21
47.95
  0
ARC
  5
17F
100
AcDbEntity
  8
Switches footprints
  6
ByLayer
 62
  256
370
   -1
100
AcDbCircle
 10
35.45
 20
47.95
 40
0.7
100
AcDbArc
 50
180
 51
270
  0
LINE
  5
180
100
AcDbEntity
  8
Switches footprints
  6
ByLayer
 62
  256
370
   -1
100
AcDbLine
 10
35.45
 20
47.25
 11
49.05
 21
47.25
  0
ARC
  5
181
100
AcDbEntity
  8
Switches footprints
  6
ByLayer
 62
  256
370
   -1
100
AcDbCircle
 10
49.05
 20
47.95
 40
0.7
100
AcDbArc
 50
270
 51
0
  0
LINE
  5
182
100
AcDbEntity
  8
Switches footprints
  6
ByLayer
 62
  256
370
   -1
100
AcDbLine
 10
49.75
 20
47.95
 11
49.75
 21
61.55
  0
LINE
  5
183
100
AcDbEntity
  8
Switches footprints
  6
ByLayer
 62
  256
370
   -1
100
AcDbLine
 10
35.45
 20
62.25
 11
49.05
 21
62.25
  0
ARC
  5
184
100
AcDbEntity
  8
Switches footprints
  6
ByLayer
 62
  256
370
   -1
100
AcDbCircle
 10
49.05
 20
61.55
 40
0.7
100
AcDbArc
 50
0
 51
90
  0
ARC
  5
185
100
AcDbEntity
  8
Switches footprints
  6
ByLayer
 62
  256
370
   -1
100
AcDbCircle
 10
35.45
 20
78.55
 40
0.7
100
AcDbArc
 50
90
 51
180
  0
LINE
  5
186
100
AcDbEntity
  8
Switches footprints
  6
ByLayer
 62
  256
370
   -1
100
AcDbLine
 10
34.75
 20
78.55
 11
34.75
 21
64.95
  0
ARC
  5
187
100
AcDbEntity
  8
Switches footprints
  6
ByLayer
 62
  256
370
   -1
100
AcDbCircle
 10
35.45
 20
64.95
 40
0.7
100
AcDbArc
 50
180
 51
270
  0
LINE
  5
188
100
AcDbEntity
  8
Switches footprints
  6
ByLayer
 62
  256
370
   -1
100
AcDbLine
 10
35.45
 20
64.25
 11
49.05
 21
64.25
  0
ARC
  5
189
100
AcDbEntity
  8
Switches footprints
  6
ByLayer
 62
  256
370
   -1
100
AcDbCircle
 10
49.05
 20
64.95
 40
0.7
100
AcDbArc
 50
270
 51
0
  0
LINE
  5
18A
100
AcDbEntity
  8
Switches footprints
  6
ByLayer
 62
  256
370
   -1
100
AcDbLine
 10
49.75
 20
64.95
 11
49.75
 21
78.55
  0
LINE
  5
18B
100
AcDbEntity
  8
Switches footprints
  6
ByLayer
 62
  256
370
   -1
100
AcDbLine
 10
35.45
 20
79.25
 11
49.05
 21
79.25
  0
ARC
  5
18C
100
AcDbEntity
  8
Switches footprints
  6
ByLayer
 62
  256
370
   -1
100
AcDbCircle
 10
49.05
 20
78.55
 40
0.7
100
AcDbArc
 50
0
 51
90
  0
ARC
  5
18D
100
AcDbEntity
  8
Switches footprints
  6
ByLayer
 62
  256
370
   -1
100
AcDbCircle
 10
35.45
 20
95.55000000000001
 40
0.7
100
AcDbArc
 50
90
 51
180
  0
LINE
  5
18E
100
AcDbEntity
  8
Switches footprints
  6
ByLayer
 62
  256
370
   -1
100
AcDbLine
 10
34.75
 20
95.55000000000001
 11
34.75
 21
81.95
  0
ARC
  5
18F
100
AcDbEntity
  8
Switches footprints
  6
ByLayer
 62
  256
370
   -1
100
AcDbCircle
 10
35.45
 20
81.95
 40
0.7
100
AcDbArc
 50
180
 51
270
  0
LINE
  5
190
100
AcDbEntity
  8
Switches footprints
  6
ByLayer
 62
  256
370
   -1
100
AcDbLine
 10
35.45
 20
81.25
 11
49.05
 21
81.25
  0
ARC
  5
191
100
AcDbEntity
  8
Switches footprints
  6
ByLayer
 62
  256
370
   -1
100
AcDbCircle
 10
49.05
 20
81.95
 40
0.7
100
AcDbArc
 50
270
 51
0
  0
LINE
  5
192
100
AcDbEntity
  8
Switches footprints
  6
ByLayer
 62
  256
370
   -1
100
AcDbLine
 10
49.75
 20
81.95
 11
49.75
 21
95.55000000000001
  0
LINE
  5
193
100
AcDbEntity
  8
Switches footprints
  6
ByLayer
 62
  256
370
   -1
100
AcDbLine
 10
35.45
 20
96.25
 11
49.05
 21
96.25
  0
ARC
  5
194
100
AcDbEntity
  8
Switches footprints
  6
ByLayer
 62
  256
370
   -1
100
AcDbCircle
 10
49.05
 20
95.55000000000001
 40
0.7
100
AcDbArc
 50
0
 51
90
  0
ARC
  5
195
100
AcDbEntity
  8
Switches footprints
  6
ByLayer
 62
  256
370
   -1
100
AcDbCircle
 10
52.45000000000001
 20
53.55
 40
0.7
100
AcDbArc
 50
90
 51
180
  0
LINE
  5
196
100
AcDbEntity
  8
Switches footprints
  6
ByLayer
 62
  256
370
   -1
100
AcDbLine
 10
51.75000000000001
 20
53.55
 11
51.75000000000001
 21
39.95
  0
ARC
  5
197
100
AcDbEntity
  8
Switches footprints
  6
ByLayer
 62
  256
370
   -1
100
AcDbCircle
 10
52.45
 20
39.95
 40
0.7
100
AcDbArc
 50
180
 51
270
  0
LINE
  5
198
100
AcDbEntity
  8
Switches footprints
  6
ByLayer
 62
  256
370
   -1
100
AcDbLine
 10
52.45
 20
39.25
 11
66.05000000000001
 21
39.25
  0
ARC
  5
199
100
AcDbEntity
  8
Switches footprints
  6
ByLayer
 62
  256
370
   -1
100
AcDbCircle
 10
66.05000000000001
 20
39.95
 40
0.7
100
AcDbArc
 50
270
 51
0
  0
LINE
  5
19A
100
AcDbEntity
  8
Switches footprints
  6
ByLayer
 62
  256
370
   -1
100
AcDbLine
 10
66.75
 20
39.95
 11
66.75
 21
53.55
  0
LINE
  5
19B
100
AcDbEntity
  8
Switches footprints
  6
ByLayer
 62
  256
370
   -1
100
AcDbLine
 10
52.45000000000001
 20
54.25
 11
66.05000000000001
 21
54.25
  0
ARC
  5
19C
100
AcDbEntity
  8
Switches footprints
  6
ByLayer
 62
  256
370
   -1
100
AcDbCircle
 10
66.05000000000001
 20
53.55
 40
0.7
100
AcDbArc
 50
0
 51
90
  0
ARC
  5
19D
100
AcDbEntity
  8
Switches footprints
  6
ByLayer
 62
  256
370
   -1
100
AcDbCircle
 10
52.45000000000001
 20
70.55
 40
0.7
100
AcDbArc
 50
90
 51
180
  0
LINE
  5
19E
100
AcDbEntity
  8
Switches footprints
  6
ByLayer
 62
  256
370
   -1
100
AcDbLine
 10
51.75000000000001
 20
70.55
 11
51.75000000000001
 21
56.95
  0
ARC
  5
19F
100
AcDbEntity
  8
Switches footprints
  6
ByLayer
 62
  256
370
   -1
100
AcDbCircle
 10
52.45
 20
56.95
 40
0.7
100
AcDbArc
 50
180
 51
270
  0
LINE
  5
1A0
100
AcDbEntity
  8
Switches footprints
  6
ByLayer
 62
  256
370
   -1
100
AcDbLine
 10
52.45
 20
56.25
 11
66.05000000000001
 21
56.25
  0
ARC
  5
1A1
100
AcDbEntity
  8
Switches footprints
  6
ByLayer
 62
  256
370
   -1
100
AcDbCircle
 10
66.05000000000001
 20
56.95
 40
0.7
100
AcDbArc
 50
270
 51
0
  0
LINE
  5
1A2
100
AcDbEntity
  8
Switches footprints
  6
ByLayer
 62
  256
370
   -1
100
AcDbLine
 10
66.75
 20
56.95
 11
66.75
 21
70.55
  0
LINE
  5
1A3
100
AcDbEntity
  8
Switches footprints
  6
ByLayer
 62
  256
370
   -1
100
AcDbLine
 10
52.45000000000001
 20
71.25
 11
66.05000000000001
 21
71.25
  0
ARC
  5
1A4
100
AcDbEntity
  8
Switches footprints
  6
ByLayer
 62
  256
370
   -1
100
AcDbCircle
 10
66.05000000000001
 20
70.55
 40
0.7
100
AcDbArc
 50
0
 51
90
  0
ARC
  5
1A5
100
AcDbEntity
  8
Switches footprints
  6
ByLayer
 62
  256
370
   -1
100
AcDbCircle
 10
52.45000000000001
 20
87.55
 40
0.7
100
AcDbArc
 50
90
 51
180
  0
LINE
  5
1A6
100
AcDbEntity
  8
Switches footprints
  6
ByLayer
 62
  256
370
   -1
100
AcDbLine
 10
51.75000000000001
 20
87.55
 11
51.75000000000001
 21
73.95
  0
ARC
  5
1A7
100
AcDbEntity
  8
Switches footprints
  6
ByLayer
 62
  256
370
   -1
100
AcDbCircle
 10
52.45
 20
73.95
 40
0.7
100
AcDbArc
 50
180
 51
270
  0
LINE
  5
1A8
100
AcDbEntity
  8
Switches footprints
  6
ByLayer
 62
  256
370
   -1
100
AcDbLine
 10
52.45
 20
73.25
 11
66.05000000000001
 21
73.25
  0
ARC
  5
1A9
100
AcDbEntity
  8
Switches footprints
  6
ByLayer
 62
  256
370
   -1
100
AcDbCircle
 10
66.05000000000001
 20
73.95
 40
0.7
100
AcDbArc
 50
270
 51
0
  0
LINE
  5
1AA
100
AcDbEntity
  8
Switches footprints
  6
ByLayer
 62
  256
370
   -1
100
AcDbLine
 10
66.75
 20
73.95
 11
66.75
 21
87.55
  0
LINE
  5
1AB
100
AcDbEntity
  8
Switches footprints
  6
ByLayer
 62
  256
370
   -1
100
AcDbLine
 10
52.45000000000001
 20
88.25
 11
66.05000000000001
 21
88.25
  0
ARC
  5
1AC
100
AcDbEntity
  8
Switches footprints
  6
ByLayer
 62
  256
370
   -1
100
AcDbCircle
 10
66.05000000000001
 20
87.55
 40
0.7
100
AcDbArc
 50
0
 51
90
  0
ARC
  5
1AD
100
AcDbEntity
  8
Switches footprints
  6
ByLayer
 62
  256
370
   -1
100
AcDbCircle
 10
69.45
 20
50.55
 40
0.7
100
AcDbArc
 50
90
 51
180
  0
LINE
  5
1AE
100
AcDbEntity
  8
Switches footprints
  6
ByLayer
 62
  256
370
   -1
100
AcDbLine
 10
68.75
 20
50.55
 11
68.75
 21
36.95
  0
ARC
  5
1AF
100
AcDbEntity
  8
Switches footprints
  6
ByLayer
 62
  256
370
   -1
100
AcDbCircle
 10
69.45
 20
36.95
 40
0.7
100
AcDbArc
 50
180
 51
270
  0
LINE
  5
1B0
100
AcDbEntity
  8
Switches footprints
  6
ByLayer
 62
  256
370
   -1
100
AcDbLine
 10
69.45
 20
36.25000000000001
 11
83.05
 21
36.25000000000001
  0
ARC
  5
1B1
100
AcDbEntity
  8
Switches footprints
  6
ByLayer
 62
  256
370
   -1
100
AcDbCircle
 10
83.05
 20
36.95
 40
0.7
100
AcDbArc
 50
270
 51
0
  0
LINE
  5
1B2
100
AcDbEntity
  8
Switches footprints
  6
ByLayer
 62
  256
370
   -1
100
AcDbLine
 10
83.75
 20
36.95
 11
83.75
 21
50.55
  0
LINE
  5
1B3
100
AcDbEntity
  8
Switches footprints
  6
ByLayer
 62
  256
370
   -1
100
AcDbLine
 10
69.45
 20
51.25
 11
83.05
 21
51.25
  0
ARC
  5
1B4
100
AcDbEntity
  8
Switches footprints
  6
ByLayer
 62
  256
370
   -1
100
AcDbCircle
 10
83.05
 20
50.55
 40
0.7
100
AcDbArc
 50
0
 51
90
  0
ARC
  5
1B5
100
AcDbEntity
  8
Switches footprints
  6
ByLayer
 62
  256
370
   -1
100
AcDbCircle
 10
69.45
 20
67.55
 40
0.7
100
AcDbArc
 50
90
 51
180
  0
LINE
  5
1B6
100
AcDbEntity
  8
Switches footprints
  6
ByLayer
 62
  256
370
   -1
100
AcDbLine
 10
68.75
 20
67.55
 11
68.75
 21
53.95
  0
ARC
  5
1B7
100
AcDbEntity
  8
Switches footprints
  6
ByLayer
 62
  256
370
   -1
100
AcDbCircle
 10
69.45
 20
53.95
 40
0.7
100
AcDbArc
 50
180
 51
270
  0
LINE
  5
1B8
100
AcDbEntity
  8
Switches footprints
  6
ByLayer
 62
  256
370
   -1
100
AcDbLine
 10
69.45
 20
53.25
 11
83.05
 21
53.25
  0
ARC
  5
1B9
100
AcDbEntity
  8
Switches footprints
  6
ByLayer
 62
  256
370
   -1
100
AcDbCircle
 10
83.05
 20
53.95
 40
0.7
100
AcDbArc
 50
270
 51
0
  0
LINE
  5
1BA
100
AcDbEntity
  8
Switches footprints
  6
ByLayer
 62
  256
370
   -1
100
AcDbLine
 10
83.75
 20
53.95
 11
83.75
 21
67.55
  0
LINE
  5
1BB
100
AcDbEntity
  8
Switches footprints
  6
ByLayer
 62
  256
370
   -1
100
AcDbLine
 10
69.45
 20
68.25
 11
83.05
 21
68.25
  0
ARC
  5
1BC
100
AcDbEntity
  8
Switches footprints
  6
ByLayer
 62
  256
370
   -1
100
AcDbCircle
 10
83.05
 20
67.55
 40
0.7
100
AcDbArc
 50
0
 51
90
  0
ARC
  5
1BD
100
AcDbEntity
  8
Switches footprints
  6
ByLayer
 62
  256
370
   -1
100
AcDbCircle
 10
69.45
 20
84.55
 40
0.7
100
AcDbArc
 50
90
 51
180
  0
LINE
  5
1BE
100
AcDbEntity
  8
Switches footprints
  6
ByLayer
 62
  256
370
   -1
100
AcDbLine
 10
68.75
 20
84.55
 11
68.75
 21
70.95
  0
ARC
  5
1BF
100
AcDbEntity
  8
Switches footprints
  6
ByLayer
 62
  256
370
   -1
100
AcDbCircle
 10
69.45
 20
70.95
 40
0.7
100
AcDbArc
 50
180
 51
270
  0
LINE
  5
1C0
100
AcDbEntity
  8
Switches footprints
  6
ByLayer
 62
  256
370
   -1
100
AcDbLine
 10
69.45
 20
70.25
 11
83.05
 21
70.25
  0
ARC
  5
1C1
100
AcDbEntity
  8
Switches footprints
  6
ByLayer
 62
  256
370
   -1
100
AcDbCircle
 10
83.05
 20
70.95
 40
0.7
100
AcDbArc
 50
270
 51
0
  0
LINE
  5
1C2
100
AcDbEntity
  8
Switches footprints
  6
ByLayer
 62
  256
370
   -1
100
AcDbLine
 10
83.75
 20
70.95
 11
83.75
 21
84.55
  0
LINE
  5
1C3
100
AcDbEntity
  8
Switches footprints
  6
ByLayer
 62
  256
370
   -1
100
AcDbLine
 10
69.45
 20
85.25
 11
83.05
 21
85.25
  0
ARC
  5
1C4
100
AcDbEntity
  8
Switches footprints
  6
ByLayer
 62
  256
370
   -1
100
AcDbCircle
 10
83.05
 20
84.55
 40
0.7
100
AcDbArc
 50
0
 51
90
  0
ARC
  5
1C5
100
AcDbEntity
  8
Switches footprints
  6
ByLayer
 62
  256
370
   -1
100
AcDbCircle
 10
52.45
 20
33.55
 40
0.7
100
AcDbArc
 50
90
 51
180
  0
LINE
  5
1C6
100
AcDbEntity
  8
Switches footprints
  6
ByLayer
 62
  256
370
   -1
100
AcDbLine
 10
51.75
 20
33.55
 11
51.75
 21
19.95
  0
ARC
  5
1C7
100
AcDbEntity
  8
Switches footprints
  6
ByLayer
 62
  256
370
   -1
100
AcDbCircle
 10
52.45
 20
19.95
 40
0.7
100
AcDbArc
 50
180
 51
270
  0
LINE
  5
1C8
100
AcDbEntity
  8
Switches footprints
  6
ByLayer
 62
  256
370
   -1
100
AcDbLine
 10
52.45
 20
19.25
 11
66.05
 21
19.25
  0
ARC
  5
1C9
100
AcDbEntity
  8
Switches footprints
  6
ByLayer
 62
  256
370
   -1
100
AcDbCircle
 10
66.05
 20
19.95
 40
0.7
100
AcDbArc
 50
270
 51
0
  0
LINE
  5
1CA
100
AcDbEntity
  8
Switches footprints
  6
ByLayer
 62
  256
370
   -1
100
AcDbLine
 10
66.75
 20
19.95
 11
66.75
 21
33.55
  0
LINE
  5
1CB
100
AcDbEntity
  8
Switches footprints
  6
ByLayer
 62
  256
370
   -1
100
AcDbLine
 10
52.45
 20
34.25
 11
66.05
 21
34.25
  0
ARC
  5
1CC
100
AcDbEntity
  8
Switches footprints
  6
ByLayer
 62
  256
370
   -1
100
AcDbCircle
 10
66.05
 20
33.55
 40
0.7
100
AcDbArc
 50
0
 51
90
  0
ARC
  5
1CD
100
AcDbEntity
  8
Switches footprints
  6
ByLayer
 62
  256
370
   -1
100
AcDbCircle
 10
32.2809517751877
 20
31.01037082710135
 40
0.7
100
AcDbArc
 50
99
 51
189
  0
LINE
  5
1CE
100
AcDbEntity
  8
Switches footprints
  6
ByLayer
 62
  256
370
   -1
100
AcDbLine
 10
31.5895699367711
 20
30.90086670157319
 11
33.71707866131824
 21
17.46830526947931
  0
ARC
  5
1CF
100
AcDbEntity
  8
Switches footprints
  6
ByLayer
 62
  256
370
   -1
100
AcDbCircle
 10
34.40846049973483
 20
17.57780939500747
 40
0.7
100
AcDbArc
 50
189
 51
279
  0
LINE
  5
1D0
100
AcDbEntity
  8
Switches footprints
  6
ByLayer
 62
  256
370
   -1
100
AcDbLine
 10
34.51796462526299
 20
16.88642755659087
 11
47.95052605735687
 21
19.01393628113801
  0
ARC
  5
1D1
100
AcDbEntity
  8
Switches footprints
  6
ByLayer
 62
  256
370
   -1
100
AcDbCircle
 10
47.84102193182871
 20
19.70531811955461
 40
0.7
100
AcDbArc
 50
279
 51
9
  0
LINE
  5
1D2
100
AcDbEntity
  8
Switches footprints
  6
ByLayer
 62
  256
370
   -1
100
AcDbLine
 10
48.5324037702453
 20
19.81482224508277
 11
46.40489504569816
 21
33.24738367717665
  0
LINE
  5
1D3
100
AcDbEntity
  8
Switches footprints
  6
ByLayer
 62
  256
370
   -1
100
AcDbLine
 10
32.17144764965954
 20
31.70175266551794
 11
45.6040090817534
 21
33.82926139006508
  0
ARC
  5
1D4
100
AcDbEntity
  8
Switches footprints
  6
ByLayer
 62
  256
370
   -1
100
AcDbCircle
 10
45.71351320728157
 20
33.13787955164849
 40
0.7
100
AcDbArc
 50
9
 51
99
  0
ARC
  5
1D5
100
AcDbEntity
  8
Switches footprints
  6
ByLayer
 62
  256
370
   -1
100
AcDbCircle
 10
73.54785333187522
 20
32.25216393183423
 40
0.7
100
AcDbArc
 50
76
 51
166.0000000000001
  0
LINE
  5
1D6
100
AcDbEntity
  8
Switches footprints
  6
ByLayer
 62
  256
370
   -1
100
AcDbLine
 10
72.868646323482
 20
32.421509258754
 11
69.57850854332652
 21
19.22548738140045
  0
ARC
  5
1D7
100
AcDbEntity
  8
Switches footprints
  6
ByLayer
 62
  256
370
   -1
100
AcDbCircle
 10
70.25771555171971
 20
19.05614205448068
 40
0.7
100
AcDbArc
 50
166.0000000000001
 51
255.9999999999999
  0
LINE
  5
1D8
100
AcDbEntity
  8
Switches footprints
  6
ByLayer
 62
  256
370
   -1
100
AcDbLine
 10
70.08837022479995
 20
18.37693504608748
 11
83.2843921021535
 21
15.086797265932
  0
ARC
  5
1D9
100
AcDbEntity
  8
Switches footprints
  6
ByLayer
 62
  256
370
   -1
100
AcDbCircle
 10
83.45373742907327
 20
15.76600427432519
 40
0.7
100
AcDbArc
 50
255.9999999999999
 51
346
  0
LINE
  5
1DA
100
AcDbEntity
  8
Switches footprints
  6
ByLayer
 62
  256
370
   -1
100
AcDbLine
 10
84.13294443746646
 20
15.59665894740543
 11
87.42308221762195
 21
28.79268082475899
  0
LINE
  5
1DB
100
AcDbEntity
  8
Switches footprints
  6
ByLayer
 62
  256
370
   -1
100
AcDbLine
 10
73.71719865879498
 20
32.93137094022742
 11
86.91322053614853
 21
29.64123316007194
  0
ARC
  5
1DC
100
AcDbEntity
  8
Switches footprints
  6
ByLayer
 62
  256
370
   -1
100
AcDbCircle
 10
86.74387520922876
 20
28.96202615167875
 40
0.7
100
AcDbArc
 50
346
 51
76
  0
ARC
  5
1DD
100
AcDbEntity
  8
Switches footprints
  6
ByLayer
 62
  256
370
   -1
100
AcDbCircle
 10
96.14797562264306
 20
23.21409024421443
 40
0.7
100
AcDbArc
 50
48.00000000000001
 51
138.0000000000001
  0
LINE
  5
1DE
100
AcDbEntity
  8
Switches footprints
  6
ByLayer
 62
  256
370
   -1
100
AcDbLine
 10
95.62777424480886
 20
23.68248166866564
 11
86.5275979983284
 21
13.57571204217308
  0
ARC
  5
1DF
100
AcDbEntity
  8
Switches footprints
  6
ByLayer
 62
  256
370
   -1
100
AcDbCircle
 10
87.04779937616257
 20
13.10732061772188
 40
0.7
100
AcDbArc
 50
138.0000000000001
 51
228
  0
LINE
  5
1E0
100
AcDbEntity
  8
Switches footprints
  6
ByLayer
 62
  256
370
   -1
100
AcDbLine
 10
86.57940795171136
 20
12.5871192398877
 11
96.68617757820394
 21
3.486942993407229
  0
ARC
  5
1E1
100
AcDbEntity
  8
Switches footprints
  6
ByLayer
 62
  256
370
   -1
100
AcDbCircle
 10
97.15456900265514
 20
4.007144371241399
 40
0.7
100
AcDbArc
 50
228
 51
317.9999999999999
  0
LINE
  5
1E2
100
AcDbEntity
  8
Switches footprints
  6
ByLayer
 62
  256
370
   -1
100
AcDbLine
 10
97.67477038048931
 20
3.538752946790201
 11
106.7749466269698
 21
13.64552257328276
  0
LINE
  5
1E3
100
AcDbEntity
  8
Switches footprints
  6
ByLayer
 62
  256
370
   -1
100
AcDbLine
 10
96.61636704709426
 20
23.73429162204861
 11
106.7231366735868
 21
14.63411537556813
  0
ARC
  5
1E4
100
AcDbEntity
  8
Switches footprints
  6
ByLayer
 62
  256
370
   -1
100
AcDbCircle
 10
106.2547452491356
 20
14.11391399773396
 40
0.7
100
AcDbArc
 50
317.9999999999999
 51
48.00000000000001
  0
LINE
  5
1E5
100
AcDbEntity
  8
Keycaps footprints
  6
ByLayer
 62
  256
370
   -1
100
AcDbLine
 10
-6.123233995736766e-17
 20
19
 11
-9.491012693391988e-16
 21
4.5
  0
LINE
  5
1E6
100
AcDbEntity
  8
Keycaps footprints
  6
ByLayer
 62
  256
370
   -1
100
AcDbLine
 10
0.999999999999999
 20
3.5
 11
15.5
 21
3.5
  0
LINE
  5
1E7
100
AcDbEntity
  8
Keycaps footprints
  6
ByLayer
 62
  256
370
   -1
100
AcDbLine
 10
16.5
 20
19
 11
16.5
 21
4.5
  0
LINE
  5
1E8
100
AcDbEntity
  8
Keycaps footprints
  6
ByLayer
 62
  256
370
   -1
100
AcDbLine
 10
0.9999999999999998
 20
20
 11
15.5
 21
20
  0
ARC
  5
1E9
100
AcDbEntity
  8
Keycaps footprints
  6
ByLayer
 62
  256
370
   -1
100
AcDbCircle
 10
0.9999999999999998
 20
19
 40
1
100
AcDbArc
 50
90
 51
180
  0
ARC
  5
1EA
100
AcDbEntity
  8
Keycaps footprints
  6
ByLayer
 62
  256
370
   -1
100
AcDbCircle
 10
0.999999999999999
 20
4.5
 40
1
100
AcDbArc
 50
180
 51
270
  0
ARC
  5
1EB
100
AcDbEntity
  8
Keycaps footprints
  6
ByLayer
 62
  256
370
   -1
100
AcDbCircle
 10
15.5
 20
4.5
 40
1
100
AcDbArc
 50
270
 51
0
  0
ARC
  5
1EC
100
AcDbEntity
  8
Keycaps footprints
  6
ByLayer
 62
  256
370
   -1
100
AcDbCircle
 10
15.5
 20
19
 40
1
100
AcDbArc
 50
0
 51
90
  0
LINE
  5
1ED
100
AcDbEntity
  8
Keycaps footprints
  6
ByLayer
 62
  256
370
   -1
100
AcDbLine
 10
2.203438688951908e-17
 20
45.5
 11
-8.65834542492312e-16
 21
31
  0
LINE
  5
1EE
100
AcDbEntity
  8
Keycaps footprints
  6
ByLayer
 62
  256
370
   -1
100
AcDbLine
 10
0.9999999999999991
 20
30
 11
15.5
 21
30
  0
LINE
  5
1EF
100
AcDbEntity
  8
Keycaps footprints
  6
ByLayer
 62
  256
370
   -1
100
AcDbLine
 10
16.5
 20
45.5
 11
16.5
 21
31
  0
LINE
  5
1F0
100
AcDbEntity
  8
Keycaps footprints
  6
ByLayer
 62
  256
370
   -1
100
AcDbLine
 10
0.9999999999999999
 20
46.5
 11
15.5
 21
46.5
  0
ARC
  5
1F1
100
AcDbEntity
  8
Keycaps footprints
  6
ByLayer
 62
  256
370
   -1
100
AcDbCircle
 10
0.9999999999999999
 20
45.5
 40
1
100
AcDbArc
 50
90
 51
180
  0
ARC
  5
1F2
100
AcDbEntity
  8
Keycaps footprints
  6
ByLayer
 62
  256
370
   -1
100
AcDbCircle
 10
0.9999999999999991
 20
31
 40
1
100
AcDbArc
 50
180
 51
270
  0
ARC
  5
1F3
100
AcDbEntity
  8
Keycaps footprints
  6
ByLayer
 62
  256
370
   -1
100
AcDbCircle
 10
15.5
 20
31
 40
1
100
AcDbArc
 50
270
 51
0
  0
ARC
  5
1F4
100
AcDbEntity
  8
Keycaps footprints
  6
ByLayer
 62
  256
370
   -1
100
AcDbCircle
 10
15.5
 20
45.5
 40
1
100
AcDbArc
 50
0
 51
90
  0
LINE
  5
1F5
100
AcDbEntity
  8
Keycaps footprints
  6
ByLayer
 62
  256
370
   -1
100
AcDbLine
 10
2.203438688951908e-17
 20
62.5
 11
-8.65834542492312e-16
 21
48
  0
LINE
  5
1F6
100
AcDbEntity
  8
Keycaps footprints
  6
ByLayer
 62
  256
370
   -1
100
AcDbLine
 10
0.9999999999999991
 20
47
 11
15.5
 21
47
  0
LINE
  5
1F7
100
AcDbEntity
  8
Keycaps footprints
  6
ByLayer
 62
  256
370
   -1
100
AcDbLine
 10
16.5
 20
62.5
 11
16.5
 21
48
  0
LINE
  5
1F8
100
AcDbEntity
  8
Keycaps footprints
  6
ByLayer
 62
  256
370
   -1
100
AcDbLine
 10
0.9999999999999999
 20
63.5
 11
15.5
 21
63.5
  0
ARC
  5
1F9
100
AcDbEntity
  8
Keycaps footprints
  6
ByLayer
 62
  256
370
   -1
100
AcDbCircle
 10
0.9999999999999999
 20
62.5
 40
1
100
AcDbArc
 50
90
 51
180
  0
ARC
  5
1FA
100
AcDbEntity
  8
Keycaps footprints
  6
ByLayer
 62
  256
370
   -1
100
AcDbCircle
 10
0.9999999999999991
 20
48
 40
1
100
AcDbArc
 50
180
 51
270
  0
ARC
  5
1FB
100
AcDbEntity
  8
Keycaps footprints
  6
ByLayer
 62
  256
370
   -1
100
AcDbCircle
 10
15.5
 20
48
 40
1
100
AcDbArc
 50
270
 51
0
  0
ARC
  5
1FC
100
AcDbEntity
  8
Keycaps footprints
  6
ByLayer
 62
  256
370
   -1
100
AcDbCircle
 10
15.5
 20
62.5
 40
1
100
AcDbArc
 50
0
 51
90
  0
LINE
  5
1FD
100
AcDbEntity
  8
Keycaps footprints
  6
ByLayer
 62
  256
370
   -1
100
AcDbLine
 10
2.203438688951908e-17
 20
79.5
 11
-8.65834542492312e-16
 21
65
  0
LINE
  5
1FE
100
AcDbEntity
  8
Keycaps footprints
  6
ByLayer
 62
  256
370
   -1
100
AcDbLine
 10
0.9999999999999991
 20
64
 11
15.5
 21
64
  0
LINE
  5
1FF
100
AcDbEntity
  8
Keycaps footprints
  6
ByLayer
 62
  256
370
   -1
100
AcDbLine
 10
16.5
 20
79.5
 11
16.5
 21
65
  0
LINE
  5
200
100
AcDbEntity
  8
Keycaps footprints
  6
ByLayer
 62
  256
370
   -1
100
AcDbLine
 10
0.9999999999999999
 20
80.5
 11
15.5
 21
80.5
  0
ARC
  5
201
100
AcDbEntity
  8
Keycaps footprints
  6
ByLayer
 62
  256
370
   -1
100
AcDbCircle
 10
0.9999999999999999
 20
79.5
 40
1
100
AcDbArc
 50
90
 51
180
  0
ARC
  5
202
100
AcDbEntity
  8
Keycaps footprints
  6
ByLayer
 62
  256
370
   -1
100
AcDbCircle
 10
0.9999999999999991
 20
65
 40
1
100
AcDbArc
 50
180
 51
270
  0
ARC
  5
203
100
AcDbEntity
  8
Keycaps footprints
  6
ByLayer
 62
  256
370
   -1
100
AcDbCircle
 10
15.5
 20
65
 40
1
100
AcDbArc
 50
270
 51
0
  0
ARC
  5
204
100
AcDbEntity
  8
Keycaps footprints
  6
ByLayer
 62
  256
370
   -1
100
AcDbCircle
 10
15.5
 20
79.5
 40
1
100
AcDbArc
 50
0
 51
90
  0
LINE
  5
205
100
AcDbEntity
  8
Keycaps footprints
  6
ByLayer
 62
  256
370
   -1
100
AcDbLine
 10
17
 20
59
 11
17
 21
44.5
  0
LINE
  5
206
100
AcDbEntity
  8
Keycaps footprints
  6
ByLayer
 62
  256
370
   -1
100
AcDbLine
 10
18
 20
43.5
 11
32.5
 21
43.5
  0
LINE
  5
207
100
AcDbEntity
  8
Keycaps footprints
  6
ByLayer
 62
  256
370
   -1
100
AcDbLine
 10
33.5
 20
59
 11
33.5
 21
44.5
  0
LINE
  5
208
100
AcDbEntity
  8
Keycaps footprints
  6
ByLayer
 62
  256
370
   -1
100
AcDbLine
 10
18
 20
60
 11
32.5
 21
60
  0
ARC
  5
209
100
AcDbEntity
  8
Keycaps footprints
  6
ByLayer
 62
  256
370
   -1
100
AcDbCircle
 10
18
 20
59
 40
1
100
AcDbArc
 50
90
 51
180
  0
ARC
  5
20A
100
AcDbEntity
  8
Keycaps footprints
  6
ByLayer
 62
  256
370
   -1
100
AcDbCircle
 10
18
 20
44.5
 40
1
100
AcDbArc
 50
180
 51
270
  0
ARC
  5
20B
100
AcDbEntity
  8
Keycaps footprints
  6
ByLayer
 62
  256
370
   -1
100
AcDbCircle
 10
32.5
 20
44.5
 40
1
100
AcDbArc
 50
270
 51
0
  0
ARC
  5
20C
100
AcDbEntity
  8
Keycaps footprints
  6
ByLayer
 62
  256
370
   -1
100
AcDbCircle
 10
32.5
 20
59
 40
1
100
AcDbArc
 50
0
 51
90
  0
LINE
  5
20D
100
AcDbEntity
  8
Keycaps footprints
  6
ByLayer
 62
  256
370
   -1
100
AcDbLine
 10
17
 20
76
 11
17
 21
61.5
  0
LINE
  5
20E
100
AcDbEntity
  8
Keycaps footprints
  6
ByLayer
 62
  256
370
   -1
100
AcDbLine
 10
18
 20
60.5
 11
32.5
 21
60.5
  0
LINE
  5
20F
100
AcDbEntity
  8
Keycaps footprints
  6
ByLayer
 62
  256
370
   -1
100
AcDbLine
 10
33.5
 20
76
 11
33.5
 21
61.5
  0
LINE
  5
210
100
AcDbEntity
  8
Keycaps footprints
  6
ByLayer
 62
  256
370
   -1
100
AcDbLine
 10
18
 20
77
 11
32.5
 21
77
  0
ARC
  5
211
100
AcDbEntity
  8
Keycaps footprints
  6
ByLayer
 62
  256
370
   -1
100
AcDbCircle
 10
18
 20
76
 40
1
100
AcDbArc
 50
90
 51
180
  0
ARC
  5
212
100
AcDbEntity
  8
Keycaps footprints
  6
ByLayer
 62
  256
370
   -1
100
AcDbCircle
 10
18
 20
61.5
 40
1
100
AcDbArc
 50
180
 51
270
  0
ARC
  5
213
100
AcDbEntity
  8
Keycaps footprints
  6
ByLayer
 62
  256
370
   -1
100
AcDbCircle
 10
32.5
 20
61.5
 40
1
100
AcDbArc
 50
270
 51
0
  0
ARC
  5
214
100
AcDbEntity
  8
Keycaps footprints
  6
ByLayer
 62
  256
370
   -1
100
AcDbCircle
 10
32.5
 20
76
 40
1
100
AcDbArc
 50
0
 51
90
  0
LINE
  5
215
100
AcDbEntity
  8
Keycaps footprints
  6
ByLayer
 62
  256
370
   -1
100
AcDbLine
 10
17
 20
93
 11
17
 21
78.5
  0
LINE
  5
216
100
AcDbEntity
  8
Keycaps footprints
  6
ByLayer
 62
  256
370
   -1
100
AcDbLine
 10
18
 20
77.5
 11
32.5
 21
77.5
  0
LINE
  5
217
100
AcDbEntity
  8
Keycaps footprints
  6
ByLayer
 62
  256
370
   -1
100
AcDbLine
 10
33.5
 20
93
 11
33.5
 21
78.5
  0
LINE
  5
218
100
AcDbEntity
  8
Keycaps footprints
  6
ByLayer
 62
  256
370
   -1
100
AcDbLine
 10
18
 20
94
 11
32.5
 21
94
  0
ARC
  5
219
100
AcDbEntity
  8
Keycaps footprints
  6
ByLayer
 62
  256
370
   -1
100
AcDbCircle
 10
18
 20
93
 40
1
100
AcDbArc
 50
90
 51
180
  0
ARC
  5
21A
100
AcDbEntity
  8
Keycaps footprints
  6
ByLayer
 62
  256
370
   -1
100
AcDbCircle
 10
18
 20
78.5
 40
1
100
AcDbArc
 50
180
 51
270
  0
ARC
  5
21B
100
AcDbEntity
  8
Keycaps footprints
  6
ByLayer
 62
  256
370
   -1
100
AcDbCircle
 10
32.5
 20
78.5
 40
1
100
AcDbArc
 50
270
 51
0
  0
ARC
  5
21C
100
AcDbEntity
  8
Keycaps footprints
  6
ByLayer
 62
  256
370
   -1
100
AcDbCircle
 10
32.5
 20
93
 40
1
100
AcDbArc
 50
0
 51
90
  0
LINE
  5
21D
100
AcDbEntity
  8
Keycaps footprints
  6
ByLayer
 62
  256
370
   -1
100
AcDbLine
 10
34
 20
62
 11
34
 21
47.5
  0
LINE
  5
21E
100
AcDbEntity
  8
Keycaps footprints
  6
ByLayer
 62
  256
370
   -1
100
AcDbLine
 10
35
 20
46.5
 11
49.5
 21
46.5
  0
LINE
  5
21F
100
AcDbEntity
  8
Keycaps footprints
  6
ByLayer
 62
  256
370
   -1
100
AcDbLine
 10
50.5
 20
62
 11
50.5
 21
47.5
  0
LINE
  5
220
100
AcDbEntity
  8
Keycaps footprints
  6
ByLayer
 62
  256
370
   -1
100
AcDbLine
 10
35
 20
63
 11
49.5
 21
63
  0
ARC
  5
221
100
AcDbEntity
  8
Keycaps footprints
  6
ByLayer
 62
  256
370
   -1
100
AcDbCircle
 10
35
 20
62
 40
1
100
AcDbArc
 50
90
 51
180
  0
ARC
  5
222
100
AcDbEntity
  8
Keycaps footprints
  6
ByLayer
 62
  256
370
   -1
100
AcDbCircle
 10
35
 20
47.5
 40
1
100
AcDbArc
 50
180
 51
270
  0
ARC
  5
223
100
AcDbEntity
  8
Keycaps footprints
  6
ByLayer
 62
  256
370
   -1
100
AcDbCircle
 10
49.5
 20
47.5
 40
1
100
AcDbArc
 50
270
 51
0
  0
ARC
  5
224
100
AcDbEntity
  8
Keycaps footprints
  6
ByLayer
 62
  256
370
   -1
100
AcDbCircle
 10
49.5
 20
62
 40
1
100
AcDbArc
 50
0
 51
90
  0
LINE
  5
225
100
AcDbEntity
  8
Keycaps footprints
  6
ByLayer
 62
  256
370
   -1
100
AcDbLine
 10
34
 20
79
 11
34
 21
64.5
  0
LINE
  5
226
100
AcDbEntity
  8
Keycaps footprints
  6
ByLayer
 62
  256
370
   -1
100
AcDbLine
 10
35
 20
63.5
 11
49.5
 21
63.5
  0
LINE
  5
227
100
AcDbEntity
  8
Keycaps footprints
  6
ByLayer
 62
  256
370
   -1
100
AcDbLine
 10
50.5
 20
79
 11
50.5
 21
64.5
  0
LINE
  5
228
100
AcDbEntity
  8
Keycaps footprints
  6
ByLayer
 62
  256
370
   -1
100
AcDbLine
 10
35
 20
80
 11
49.5
 21
80
  0
ARC
  5
229
100
AcDbEntity
  8
Keycaps footprints
  6
ByLayer
 62
  256
370
   -1
100
AcDbCircle
 10
35
 20
79
 40
1
100
AcDbArc
 50
90
 51
180
  0
ARC
  5
22A
100
AcDbEntity
  8
Keycaps footprints
  6
ByLayer
 62
  256
370
   -1
100
AcDbCircle
 10
35
 20
64.5
 40
1
100
AcDbArc
 50
180
 51
270
  0
ARC
  5
22B
100
AcDbEntity
  8
Keycaps footprints
  6
ByLayer
 62
  256
370
   -1
100
AcDbCircle
 10
49.5
 20
64.5
 40
1
100
AcDbArc
 50
270
 51
0
  0
ARC
  5
22C
100
AcDbEntity
  8
Keycaps footprints
  6
ByLayer
 62
  256
370
   -1
100
AcDbCircle
 10
49.5
 20
79
 40
1
100
AcDbArc
 50
0
 51
90
  0
LINE
  5
22D
100
AcDbEntity
  8
Keycaps footprints
  6
ByLayer
 62
  256
370
   -1
100
AcDbLine
 10
34
 20
96
 11
34
 21
81.5
  0
LINE
  5
22E
100
AcDbEntity
  8
Keycaps footprints
  6
ByLayer
 62
  256
370
   -1
100
AcDbLine
 10
35
 20
80.5
 11
49.5
 21
80.5
  0
LINE
  5
22F
100
AcDbEntity
  8
Keycaps footprints
  6
ByLayer
 62
  256
370
   -1
100
AcDbLine
 10
50.5
 20
96
 11
50.5
 21
81.5
  0
LINE
  5
230
100
AcDbEntity
  8
Keycaps footprints
  6
ByLayer
 62
  256
370
   -1
100
AcDbLine
 10
35
 20
97
 11
49.5
 21
97
  0
ARC
  5
231
100
AcDbEntity
  8
Keycaps footprints
  6
ByLayer
 62
  256
370
   -1
100
AcDbCircle
 10
35
 20
96
 40
1
100
AcDbArc
 50
90
 51
180
  0
ARC
  5
232
100
AcDbEntity
  8
Keycaps footprints
  6
ByLayer
 62
  256
370
   -1
100
AcDbCircle
 10
35
 20
81.5
 40
1
100
AcDbArc
 50
180
 51
270
  0
ARC
  5
233
100
AcDbEntity
  8
Keycaps footprints
  6
ByLayer
 62
  256
370
   -1
100
AcDbCircle
 10
49.5
 20
81.5
 40
1
100
AcDbArc
 50
270
 51
0
  0
ARC
  5
234
100
AcDbEntity
  8
Keycaps footprints
  6
ByLayer
 62
  256
370
   -1
100
AcDbCircle
 10
49.5
 20
96
 40
1
100
AcDbArc
 50
0
 51
90
  0
LINE
  5
235
100
AcDbEntity
  8
Keycaps footprints
  6
ByLayer
 62
  256
370
   -1
100
AcDbLine
 10
51.00000000000001
 20
54
 11
51.00000000000001
 21
39.5
  0
LINE
  5
236
100
AcDbEntity
  8
Keycaps footprints
  6
ByLayer
 62
  256
370
   -1
100
AcDbLine
 10
52.00000000000001
 20
38.5
 11
66.5
 21
38.5
  0
LINE
  5
237
100
AcDbEntity
  8
Keycaps footprints
  6
ByLayer
 62
  256
370
   -1
100
AcDbLine
 10
67.5
 20
54
 11
67.5
 21
39.5
  0
LINE
  5
238
100
AcDbEntity
  8
Keycaps footprints
  6
ByLayer
 62
  256
370
   -1
100
AcDbLine
 10
52.00000000000001
 20
55
 11
66.5
 21
55
  0
ARC
  5
239
100
AcDbEntity
  8
Keycaps footprints
  6
ByLayer
 62
  256
370
   -1
100
AcDbCircle
 10
52.00000000000001
 20
54
 40
1
100
AcDbArc
 50
90
 51
180
  0
ARC
  5
23A
100
AcDbEntity
  8
Keycaps footprints
  6
ByLayer
 62
  256
370
   -1
100
AcDbCircle
 10
52.00000000000001
 20
39.5
 40
1
100
AcDbArc
 50
180
 51
270
  0
ARC
  5
23B
100
AcDbEntity
  8
Keycaps footprints
  6
ByLayer
 62
  256
370
   -1
100
AcDbCircle
 10
66.5
 20
39.5
 40
1
100
AcDbArc
 50
270
 51
0
  0
ARC
  5
23C
100
AcDbEntity
  8
Keycaps footprints
  6
ByLayer
 62
  256
370
   -1
100
AcDbCircle
 10
66.5
 20
54
 40
1
100
AcDbArc
 50
0
 51
90
  0
LINE
  5
23D
100
AcDbEntity
  8
Keycaps footprints
  6
ByLayer
 62
  256
370
   -1
100
AcDbLine
 10
51.00000000000001
 20
71
 11
51.00000000000001
 21
56.5
  0
LINE
  5
23E
100
AcDbEntity
  8
Keycaps footprints
  6
ByLayer
 62
  256
370
   -1
100
AcDbLine
 10
52.00000000000001
 20
55.5
 11
66.5
 21
55.5
  0
LINE
  5
23F
100
AcDbEntity
  8
Keycaps footprints
  6
ByLayer
 62
  256
370
   -1
100
AcDbLine
 10
67.5
 20
71
 11
67.5
 21
56.5
  0
LINE
  5
240
100
AcDbEntity
  8
Keycaps footprints
  6
ByLayer
 62
  256
370
   -1
100
AcDbLine
 10
52.00000000000001
 20
72
 11
66.5
 21
72
  0
ARC
  5
241
100
AcDbEntity
  8
Keycaps footprints
  6
ByLayer
 62
  256
370
   -1
100
AcDbCircle
 10
52.00000000000001
 20
71
 40
1
100
AcDbArc
 50
90
 51
180
  0
ARC
  5
242
100
AcDbEntity
  8
Keycaps footprints
  6
ByLayer
 62
  256
370
   -1
100
AcDbCircle
 10
52.00000000000001
 20
56.5
 40
1
100
AcDbArc
 50
180
 51
270
  0
ARC
  5
243
100
AcDbEntity
  8
Keycaps footprints
  6
ByLayer
 62
  256
370
   -1
100
AcDbCircle
 10
66.5
 20
56.5
 40
1
100
AcDbArc
 50
270
 51
0
  0
ARC
  5
244
100
AcDbEntity
  8
Keycaps footprints
  6
ByLayer
 62
  256
370
   -1
100
AcDbCircle
 10
66.5
 20
71
 40
1
100
AcDbArc
 50
0
 51
90
  0
LINE
  5
245
100
AcDbEntity
  8
Keycaps footprints
  6
ByLayer
 62
  256
370
   -1
100
AcDbLine
 10
51.00000000000001
 20
88
 11
51.00000000000001
 21
73.5
  0
LINE
  5
246
100
AcDbEntity
  8
Keycaps footprints
  6
ByLayer
 62
  256
370
   -1
100
AcDbLine
 10
52.00000000000001
 20
72.5
 11
66.5
 21
72.5
  0
LINE
  5
247
100
AcDbEntity
  8
Keycaps footprints
  6
ByLayer
 62
  256
370
   -1
100
AcDbLine
 10
67.5
 20
88
 11
67.5
 21
73.5
  0
LINE
  5
248
100
AcDbEntity
  8
Keycaps footprints
  6
ByLayer
 62
  256
370
   -1
100
AcDbLine
 10
52.00000000000001
 20
89
 11
66.5
 21
89
  0
ARC
  5
249
100
AcDbEntity
  8
Keycaps footprints
  6
ByLayer
 62
  256
370
   -1
100
AcDbCircle
 10
52.00000000000001
 20
88
 40
1
100
AcDbArc
 50
90
 51
180
  0
ARC
  5
24A
100
AcDbEntity
  8
Keycaps footprints
  6
ByLayer
 62
  256
370
   -1
100
AcDbCircle
 10
52.00000000000001
 20
73.5
 40
1
100
AcDbArc
 50
180
 51
270
  0
ARC
  5
24B
100
AcDbEntity
  8
Keycaps footprints
  6
ByLayer
 62
  256
370
   -1
100
AcDbCircle
 10
66.5
 20
73.5
 40
1
100
AcDbArc
 50
270
 51
0
  0
ARC
  5
24C
100
AcDbEntity
  8
Keycaps footprints
  6
ByLayer
 62
  256
370
   -1
100
AcDbCircle
 10
66.5
 20
88
 40
1
100
AcDbArc
 50
0
 51
90
  0
LINE
  5
24D
100
AcDbEntity
  8
Keycaps footprints
  6
ByLayer
 62
  256
370
   -1
100
AcDbLine
 10
68
 20
51
 11
68
 21
36.50000000000001
  0
LINE
  5
24E
100
AcDbEntity
  8
Keycaps footprints
  6
ByLayer
 62
  256
370
   -1
100
AcDbLine
 10
69
 20
35.50000000000001
 11
83.5
 21
35.50000000000001
  0
LINE
  5
24F
100
AcDbEntity
  8
Keycaps footprints
  6
ByLayer
 62
  256
370
   -1
100
AcDbLine
 10
84.5
 20
51
 11
84.5
 21
36.50000000000001
  0
LINE
  5
250
100
AcDbEntity
  8
Keycaps footprints
  6
ByLayer
 62
  256
370
   -1
100
AcDbLine
 10
69
 20
52
 11
83.5
 21
52
  0
ARC
  5
251
100
AcDbEntity
  8
Keycaps footprints
  6
ByLayer
 62
  256
370
   -1
100
AcDbCircle
 10
69
 20
51
 40
1
100
AcDbArc
 50
90
 51
180
  0
ARC
  5
252
100
AcDbEntity
  8
Keycaps footprints
  6
ByLayer
 62
  256
370
   -1
100
AcDbCircle
 10
69
 20
36.50000000000001
 40
1
100
AcDbArc
 50
180
 51
270
  0
ARC
  5
253
100
AcDbEntity
  8
Keycaps footprints
  6
ByLayer
 62
  256
370
   -1
100
AcDbCircle
 10
83.5
 20
36.50000000000001
 40
1
100
AcDbArc
 50
270
 51
0
  0
ARC
  5
254
100
AcDbEntity
  8
Keycaps footprints
  6
ByLayer
 62
  256
370
   -1
100
AcDbCircle
 10
83.5
 20
51
 40
1
100
AcDbArc
 50
0
 51
90
  0
LINE
  5
255
100
AcDbEntity
  8
Keycaps footprints
  6
ByLayer
 62
  256
370
   -1
100
AcDbLine
 10
68
 20
68
 11
68
 21
53.5
  0
LINE
  5
256
100
AcDbEntity
  8
Keycaps footprints
  6
ByLayer
 62
  256
370
   -1
100
AcDbLine
 10
69
 20
52.5
 11
83.5
 21
52.5
  0
LINE
  5
257
100
AcDbEntity
  8
Keycaps footprints
  6
ByLayer
 62
  256
370
   -1
100
AcDbLine
 10
84.5
 20
68
 11
84.5
 21
53.5
  0
LINE
  5
258
100
AcDbEntity
  8
Keycaps footprints
  6
ByLayer
 62
  256
370
   -1
100
AcDbLine
 10
69
 20
69
 11
83.5
 21
69
  0
ARC
  5
259
100
AcDbEntity
  8
Keycaps footprints
  6
ByLayer
 62
  256
370
   -1
100
AcDbCircle
 10
69
 20
68
 40
1
100
AcDbArc
 50
90
 51
180
  0
ARC
  5
25A
100
AcDbEntity
  8
Keycaps footprints
  6
ByLayer
 62
  256
370
   -1
100
AcDbCircle
 10
69
 20
53.5
 40
1
100
AcDbArc
 50
180
 51
270
  0
ARC
  5
25B
100
AcDbEntity
  8
Keycaps footprints
  6
ByLayer
 62
  256
370
   -1
100
AcDbCircle
 10
83.5
 20
53.5
 40
1
100
AcDbArc
 50
270
 51
0
  0
ARC
  5
25C
100
AcDbEntity
  8
Keycaps footprints
  6
ByLayer
 62
  256
370
   -1
100
AcDbCircle
 10
83.5
 20
68
 40
1
100
AcDbArc
 50
0
 51
90
  0
LINE
  5
25D
100
AcDbEntity
  8
Keycaps footprints
  6
ByLayer
 62
  256
370
   -1
100
AcDbLine
 10
68
 20
85
 11
68
 21
70.5
  0
LINE
  5
25E
100
AcDbEntity
  8
Keycaps footprints
  6
ByLayer
 62
  256
370
   -1
100
AcDbLine
 10
69
 20
69.5
 11
83.5
 21
69.5
  0
LINE
  5
25F
100
AcDbEntity
  8
Keycaps footprints
  6
ByLayer
 62
  256
370
   -1
100
AcDbLine
 10
84.5
 20
85
 11
84.5
 21
70.5
  0
LINE
  5
260
100
AcDbEntity
  8
Keycaps footprints
  6
ByLayer
 62
  256
370
   -1
100
AcDbLine
 10
69
 20
86
 11
83.5
 21
86
  0
ARC
  5
261
100
AcDbEntity
  8
Keycaps footprints
  6
ByLayer
 62
  256
370
   -1
100
AcDbCircle
 10
69
 20
85
 40
1
100
AcDbArc
 50
90
 51
180
  0
ARC
  5
262
100
AcDbEntity
  8
Keycaps footprints
  6
ByLayer
 62
  256
370
   -1
100
AcDbCircle
 10
69
 20
70.5
 40
1
100
AcDbArc
 50
180
 51
270
  0
ARC
  5
263
100
AcDbEntity
  8
Keycaps footprints
  6
ByLayer
 62
  256
370
   -1
100
AcDbCircle
 10
83.5
 20
70.5
 40
1
100
AcDbArc
 50
270
 51
0
  0
ARC
  5
264
100
AcDbEntity
  8
Keycaps footprints
  6
ByLayer
 62
  256
370
   -1
100
AcDbCircle
 10
83.5
 20
85
 40
1
100
AcDbArc
 50
0
 51
90
  0
LINE
  5
265
100
AcDbEntity
  8
Keycaps footprints
  6
ByLayer
 62
  256
370
   -1
100
AcDbLine
 10
51
 20
34
 11
51
 21
19.5
  0
LINE
  5
266
100
AcDbEntity
  8
Keycaps footprints
  6
ByLayer
 62
  256
370
   -1
100
AcDbLine
 10
52
 20
18.5
 11
66.5
 21
18.5
  0
LINE
  5
267
100
AcDbEntity
  8
Keycaps footprints
  6
ByLayer
 62
  256
370
   -1
100
AcDbLine
 10
67.5
 20
34
 11
67.5
 21
19.5
  0
LINE
  5
268
100
AcDbEntity
  8
Keycaps footprints
  6
ByLayer
 62
  256
370
   -1
100
AcDbLine
 10
52
 20
35
 11
66.5
 21
35
  0
ARC
  5
269
100
AcDbEntity
  8
Keycaps footprints
  6
ByLayer
 62
  256
370
   -1
100
AcDbCircle
 10
52
 20
34
 40
1
100
AcDbArc
 50
90
 51
180
  0
ARC
  5
26A
100
AcDbEntity
  8
Keycaps footprints
  6
ByLayer
 62
  256
370
   -1
100
AcDbCircle
 10
52
 20
19.5
 40
1
100
AcDbArc
 50
180
 51
270
  0
ARC
  5
26B
100
AcDbEntity
  8
Keycaps footprints
  6
ByLayer
 62
  256
370
   -1
100
AcDbCircle
 10
66.5
 20
19.5
 40
1
100
AcDbArc
 50
270
 51
0
  0
ARC
  5
26C
100
AcDbEntity
  8
Keycaps footprints
  6
ByLayer
 62
  256
370
   -1
100
AcDbCircle
 10
66.5
 20
34
 40
1
100
AcDbArc
 50
0
 51
90
  0
LINE
  5
26D
100
AcDbEntity
  8
Keycaps footprints
  6
ByLayer
 62
  256
370
   -1
100
AcDbLine
 10
30.77840817205664
 20
31.22800060606082
 11
33.04670791513999
 21
16.90651966743132
  0
LINE
  5
26E
100
AcDbEntity
  8
Keycaps footprints
  6
ByLayer
 62
  256
370
   -1
100
AcDbLine
 10
34.19083072077536
 20
16.07526579187642
 11
48.51231165940486
 21
18.34356553495977
  0
LINE
  5
26F
100
AcDbEntity
  8
Keycaps footprints
  6
ByLayer
 62
  256
370
   -1
100
AcDbLine
 10
47.07526579187641
 20
33.80916927922463
 11
49.34356553495977
 21
19.48768834059513
  0
LINE
  5
270
100
AcDbEntity
  8
Keycaps footprints
  6
ByLayer
 62
  256
370
   -1
100
AcDbLine
 10
31.60966204761155
 20
32.37212341169619
 11
45.93114298624104
 21
34.64042315477953
  0
ARC
  5
271
100
AcDbEntity
  8
Keycaps footprints
  6
ByLayer
 62
  256
370
   -1
100
AcDbCircle
 10
31.76609651265178
 20
31.38443507110106
 40
1
100
AcDbArc
 50
99
 51
189
  0
ARC
  5
272
100
AcDbEntity
  8
Keycaps footprints
  6
ByLayer
 62
  256
370
   -1
100
AcDbCircle
 10
48.35587719436462
 20
19.3312538755549
 40
1
100
AcDbArc
 50
279
 51
9
  0
ARC
  5
273
100
AcDbEntity
  8
Keycaps footprints
  6
ByLayer
 62
  256
370
   -1
100
AcDbCircle
 10
46.08757745128128
 20
33.6527348141844
 40
1
100
AcDbArc
 50
9
 51
99
  0
LINE
  5
274
100
AcDbEntity
  8
Keycaps footprints
  6
ByLayer
 62
  256
370
   -1
100
AcDbLine
 10
72.24978938179486
 20
33.03958375727795
 11
68.74192189559967
 21
18.970295726276
  0
LINE
  5
275
100
AcDbEntity
  8
Keycaps footprints
  6
ByLayer
 62
  256
370
   -1
100
AcDbLine
 10
69.47029572627599
 20
17.75807810440034
 11
83.53958375727794
 21
14.25021061820515
  0
LINE
  5
276
100
AcDbEntity
  8
Keycaps footprints
  6
ByLayer
 62
  256
370
   -1
100
AcDbLine
 10
88.2596688653488
 20
29.04787247988343
 11
84.7518013791536
 21
14.97858444888148
  0
LINE
  5
277
100
AcDbEntity
  8
Keycaps footprints
  6
ByLayer
 62
  256
370
   -1
100
AcDbLine
 10
73.46200700367052
 20
33.76795758795428
 11
87.53129503467247
 21
30.26009010175909
  0
ARC
  5
278
100
AcDbEntity
  8
Keycaps footprints
  6
ByLayer
 62
  256
370
   -1
100
AcDbCircle
 10
73.22008510807085
 20
32.79766186167828
 40
1
100
AcDbArc
 50
76
 51
166.0000000000001
  0
ARC
  5
279
100
AcDbEntity
  8
Keycaps footprints
  6
ByLayer
 62
  256
370
   -1
100
AcDbCircle
 10
69.71221762187567
 20
18.72837383067633
 40
1
100
AcDbArc
 50
166.0000000000001
 51
255.9999999999999
  0
ARC
  5
27A
100
AcDbEntity
  8
Keycaps footprints
  6
ByLayer
 62
  256
370
   -1
100
AcDbCircle
 10
83.78150565287761
 20
15.22050634448115
 40
1
100
AcDbArc
 50
255.9999999999999
 51
346
  0
ARC
  5
27B
100
AcDbEntity
  8
Keycaps footprints
  6
ByLayer
 62
  256
370
   -1
100
AcDbCircle
 10
87.28937313907279
 20
29.2897943754831
 40
1
100
AcDbArc
 50
346
 51
76
  0
LINE
  5
27C
100
AcDbEntity
  8
Keycaps footprints
  6
ByLayer
 62
  256
370
   -1
100
AcDbLine
 10
95.37152439856231
 20
24.51874479489961
 11
85.66913060635886
 21
13.74314482547739
  0
LINE
  5
27D
100
AcDbEntity
  8
Keycaps footprints
  6
ByLayer
 62
  256
370
   -1
100
AcDbLine
 10
85.74314482547739
 20
12.33086939364115
 11
96.5187447948996
 21
2.6284756014377
  0
LINE
  5
27E
100
AcDbEntity
  8
Keycaps footprints
  6
ByLayer
 62
  256
370
   -1
100
AcDbLine
 10
96.78379983039856
 20
24.59275901401814
 11
107.5593997998208
 21
14.8903652218147
  0
ARC
  5
27F
100
AcDbEntity
  8
Keycaps footprints
  6
ByLayer
 62
  256
370
   -1
100
AcDbCircle
 10
86.41227543183625
 20
13.07401421911854
 40
1
100
AcDbArc
 50
138.0000000000001
 51
228
  0
ARC
  5
280
100
AcDbEntity
  8
Keycaps footprints
  6
ByLayer
 62
  256
370
   -1
100
AcDbCircle
 10
97.18787540125847
 20
3.371620426915101
 40
1
100
AcDbArc
 50
228
 51
317.9999999999999
  0
ARC
  5
281
100
AcDbEntity
  8
Keycaps footprints
  6
ByLayer
 62
  256
370
   -1
100
AcDbCircle
 10
106.8902691934619
 20
14.14722039633731
 40
1
100
AcDbArc
 50
317.9999999999999
 51
48.00000000000001
  0
ARC
  5
282
100
AcDbEntity
  8
Keycaps footprints
  6
ByLayer
 62
  256
370
   -1
100
AcDbCircle
 10
34.03439625573512
 20
17.06295413247156
 40
1
100
AcDbArc
 50
189
 51
279
  0
ARC
  5
283
100
AcDbEntity
  8
Keycaps footprints
  6
ByLayer
 62
  256
370
   -1
100
AcDbCircle
 10
96.12858290494549
 20
23.58412534134812
 40
1.202768101106512
100
AcDbArc
 50
56.99190745459467
 51
129.008092544716
  0
ARC
  5
284
100
AcDbEntity
  8
Keycaps footprints
  6
ByLayer
 62
  256
370
   -1
100
AcDbCircle
 10
1
 20
31
 40
0.9999999999999964
100
AcDbArc
 50
180
 51
262.8749836510982
  0
ARC
  5
285
100
AcDbEntity
  8
Keycaps footprints
  6
ByLayer
 62
  256
370
   -1
100
AcDbCircle
 10
1
 20
31
 40
1.000000000000001
100
AcDbArc
 50
180
 51
270
  0
LINE
  5
286
100
AcDbEntity
  8
Plate contour
  6
ByLayer
 62
  256
370
   -1
100
AcDbLine
 10
132.7679143715072
 20
10.94388918829717
 11
123.8528276178391
 21
2.963040904617125
  0
LINE
  5
287
100
AcDbEntity
  8
Plate contour
  6
ByLayer
 62
  256
370
   -1
100
AcDbLine
 10
87.23208562849278
 20
10.94388918829717
 11
96.14717238216092
 21
2.963040904617125
  0
ARC
  5
288
100
AcDbEntity
  8
Plate contour
  6
ByLayer
 62
  256
370
   -1
100
AcDbCircle
 10
105.5
 20
34.49999999999998
 40
0.7500000000000129
100
AcDbArc
 50
180
 51
359.9999999999999
  0
ARC
  5
289
100
AcDbEntity
  8
Plate contour
  6
ByLayer
 62
  256
370
   -1
100
AcDbCircle
 10
87.5
 20
84
 40
0.7500000000008886
100
AcDbArc
 50
0
 51
179.9999518625235
  0
ARC
  5
28A
100
AcDbEntity
  8
Plate contour
  6
ByLayer
 62
  256
370
   -1
100
AcDbCircle
 10
105.5
 20
84
 40
0.75
100
AcDbArc
 50
0
 51
179.9999121334773
  0
LINE
  5
28B
100
AcDbEntity
  8
Plate contour
  6
ByLayer
 62
  256
370
   -1
100
AcDbLine
 10
104.75
 20
34.49999999999998
 11
104.7500000000009
 21
84.00000115017009
  0
LINE
  5
28C
100
AcDbEntity
  8
Plate contour
  6
ByLayer
 62
  256
370
   -1
100
AcDbLine
 10
106.25
 20
84.0000007988243
 11
106.25
 21
34.49999999999996
  0
LINE
  5
28D
100
AcDbEntity
  8
Plate contour
  6
ByLayer
 62
  256
370
   -1
100
AcDbLine
 10
88.25000000000088
 20
84.00000010183487
 11
88.25
 21
34.99999999999999
  0
LINE
  5
28E
100
AcDbEntity
  8
Plate contour
  6
ByLayer
 62
  256
370
   -1
100
AcDbLine
 10
86.75
 20
34.9999999690321
 11
86.74999999999937
 21
84.00000063011809
  0
ARC
  5
28F
100
AcDbEntity
  8
Plate contour
  6
ByLayer
 62
  256
370
   -1
100
AcDbCircle
 10
87.5
 20
34.99999999999999
 40
0.7499999999999998
100
AcDbArc
 50
180
 51
0
  0
ARC
  5
290
100
AcDbEntity
  8
Plate contour
  6
ByLayer
 62
  256
370
   -1
100
AcDbCircle
 10
105.5
 20
34.49999999999998
 40
0.7500000000000129
100
AcDbArc
 50
180
 51
359.9999999999999
  0
ARC
  5
291
100
AcDbEntity
  8
Plate contour
  6
ByLayer
 62
  256
370
   -1
100
AcDbCircle
 10
87.5
 20
84
 40
0.7500000000008886
100
AcDbArc
 50
0
 51
179.9999518625235
  0
ARC
  5
292
100
AcDbEntity
  8
Plate contour
  6
ByLayer
 62
  256
370
   -1
100
AcDbCircle
 10
105.5
 20
84
 40
0.75
100
AcDbArc
 50
0
 51
179.9999121334773
  0
LINE
  5
293
100
AcDbEntity
  8
Plate contour
  6
ByLayer
 62
  256
370
   -1
100
AcDbLine
 10
104.75
 20
34.49999999999998
 11
104.7500000000009
 21
84.00000115017009
  0
LINE
  5
294
100
AcDbEntity
  8
Plate contour
  6
ByLayer
 62
  256
370
   -1
100
AcDbLine
 10
106.25
 20
84.0000007988243
 11
106.25
 21
34.49999999999996
  0
LINE
  5
295
100
AcDbEntity
  8
Plate contour
  6
ByLayer
 62
  256
370
   -1
100
AcDbLine
 10
88.25000000000088
 20
84.00000010183487
 11
88.25
 21
34.99999999999999
  0
LINE
  5
296
100
AcDbEntity
  8
Plate contour
  6
ByLayer
 62
  256
370
   -1
100
AcDbLine
 10
86.75
 20
34.9999999690321
 11
86.74999999999937
 21
84.00000063011809
  0
ARC
  5
297
100
AcDbEntity
  8
Plate contour
  6
ByLayer
 62
  256
370
   -1
100
AcDbCircle
 10
87.5
 20
34.99999999999999
 40
0.7499999999999998
100
AcDbArc
 50
180
 51
0
  0
LINE
  5
298
100
AcDbEntity
  8
Plate contour
  6
ByLayer
 62
  256
370
   -1
100
AcDbLine
 10
69
 20
86
 11
108
 21
86
  0
LINE
  5
299
100
AcDbEntity
  8
Plate contour
  6
ByLayer
 62
  256
370
   -1
100
AcDbLine
 10
108
 20
86
 11
108
 21
14.46102082085852
  0
LINE
  5
29A
100
AcDbEntity
  8
Keycaps footprints
  6
ByLayer
 62
  256
370
   -1
100
AcDbLine
 10
107.6147172382161
 20
13.45732491132023
 11
97.93102022673585
 21
2.702489820556242
  0
ARC
  5
29B
100
AcDbEntity
  8
Plate contour
  6
ByLayer
 62
  256
370
   -1
100
AcDbCircle
 10
106.5
 20
14.46102082085852
 40
1.5
100
AcDbArc
 50
317.9999999999999
 51
7.63333123551244e-14
  0
LINE
  5
29C
100
AcDbEntity
  8
Plate contour
  6
ByLayer
 62
  256
370
   -1
100
AcDbLine
 10
98.26558552991528
 20
3.074062233294928
 11
107.6147172382161
 21
13.45732491132023
  0
ENDSEC
  0
SECTION
  2
OBJECTS
  0
DICTIONARY
  5
C
330
0
100
AcDbDictionary
281
    1
  3
ACAD_GROUP
350
D
  0
DICTIONARY
  5
D
330
C
100
AcDbDictionary
281
    1
  0
PLOTSETTINGS
  5
29D
100
AcDbPlotSettings
  6
1x1
 40
0
 41
0
 42
0
 43
0
  0
ENDSEC
  0
EOF
